<?xml version="1.0" encoding="UTF-8" standalone="no"?>
<!-- Created with Inkscape (http://www.inkscape.org/) -->

<svg
   version="1.1"
   id="svg2"
   xml:space="preserve"
   width="184.34666"
   height="61.035999"
   viewBox="0 0 184.34666 61.035999"
   sodipodi:docname="main.pdf"
   xmlns:inkscape="http://www.inkscape.org/namespaces/inkscape"
   xmlns:sodipodi="http://sodipodi.sourceforge.net/DTD/sodipodi-0.dtd"
   xmlns="http://www.w3.org/2000/svg"
   xmlns:svg="http://www.w3.org/2000/svg"><defs
     id="defs6" /><sodipodi:namedview
     id="namedview4"
     pagecolor="#ffffff"
     bordercolor="#666666"
     borderopacity="1.0"
     inkscape:pageshadow="2"
     inkscape:pageopacity="0.0"
     inkscape:pagecheckerboard="0" /><g
     id="g8"
     inkscape:groupmode="layer"
     inkscape:label="main"
     transform="matrix(1.3333333,0,0,-1.3333333,0,61.036)"><g
       id="g10"><path
         d="M 0,0 H 138.26 V 45.777 H 0 Z"
         style="fill:#ffffff;fill-opacity:1;fill-rule:nonzero;stroke:none"
         id="path12" /></g><g
       id="g14"
       transform="translate(40.797,23.295)"><g
         id="g16"><g
           id="g18" /><g
           id="g20"><g
             id="g22"><path
               d="M -0.89658,5.37987 C 2.94704,5.37987 6.49986,3.32866 8.42166,0 6.49986,-3.32869 2.94704,-5.3799 -0.89658,-5.3799 l -5.37988,3e-5 c 0.80467,1.70716 1.21874,3.53295 1.21874,5.37417 0,1.8412 -0.41407,3.66699 -1.21874,5.37414 z m -7.17323,-10.75974 0.09242,0.16337 m 0,0 0.08965,0.16517 m 0,0 0.0867,0.16647 m 0,0 0.08374,0.16812 m 0,0 0.08093,0.16944 m 0,0 0.07782,0.17091 m 0,0 0.07486,0.17223 m 0,0 0.07192,0.17354 m 0,0 0.06878,0.17469 m 0,0 0.06584,0.17583 m 0,0 0.06272,0.17697 m 0,0 0.0596,0.17815 m 0,0 0.05632,0.17914 m 0,0 0.05336,0.1801 m 0,0 0.05023,0.18092 m 0,0 0.04712,0.18192 m 0,0 0.04367,0.18255 m 0,0 0.04071,0.18325 m 0,0 0.03745,0.18403 m 0,0 0.03431,0.18471 m 0,0 0.03086,0.18519 m 0,0 0.02775,0.18569 m 0,0 0.02461,0.18618 m 0,0 0.0212,0.18668 m 0,0 0.0179,0.18683 m 0,0 0.01477,0.18716 m 0,0 0.01149,0.1875 m 0,0 0.00821,0.18766 m 0,0 0.00493,0.18767 m 0,0 L -6.6283,0 m 0,0 -0.00164,0.1878 m 0,0 -0.00493,0.18767 m 0,0 -0.00821,0.18766 m 0,0 -0.01149,0.1875 m 0,0 -0.01477,0.18716 m 0,0 -0.0179,0.18683 m 0,0 -0.0212,0.18668 m 0,0 -0.02461,0.18618 m 0,0 -0.02775,0.18569 m 0,0 -0.03086,0.18519 m 0,0 -0.03431,0.18471 m 0,0 -0.03745,0.18403 m 0,0 -0.04071,0.18325 m 0,0 -0.04367,0.18255 m 0,0 -0.04712,0.18192 m 0,0 -0.05023,0.18092 m 0,0 -0.05336,0.1801 m 0,0 -0.05632,0.17914 m 0,0 -0.0596,0.17815 m 0,0 -0.06272,0.17697 m 0,0 -0.06584,0.17583 m 0,0 -0.06878,0.17469 m 0,0 -0.07192,0.17354 m 0,0 -0.07486,0.17223 m 0,0 -0.07782,0.17091 m 0,0 -0.08093,0.16944 m 0,0 -0.08374,0.16812 m 0,0 -0.0867,0.16647 m 0,0 -0.08965,0.16517 m 0,0 -0.09242,0.16337"
               style="fill:none;stroke:#000000;stroke-width:0.3985;stroke-linecap:butt;stroke-linejoin:miter;stroke-miterlimit:10;stroke-dasharray:none;stroke-opacity:1"
               id="path24" /><g
               id="g26"
               transform="scale(0.75)"><g
                 id="g28" /></g></g><g
             id="g30"><path
               d="m 1.79324,-7.75739 c 2.97127,0 5.37989,-2.40861 5.37989,-5.37986 0,-2.97125 -2.40862,-5.37987 -5.37989,-5.37987 h -8.0697 v 10.75973 z"
               style="fill:none;stroke:#000000;stroke-width:0.3985;stroke-linecap:butt;stroke-linejoin:miter;stroke-miterlimit:10;stroke-dasharray:none;stroke-opacity:1"
               id="path32" /><g
               id="g34"
               transform="matrix(0.75,0,0,0.75,0,-13.137)"><g
                 id="g36" /><g
                 id="g38"
                 transform="translate(0,13.137)" /></g></g><path
             d="M 8.59421,0 H 25.53116"
             style="fill:none;stroke:#000000;stroke-width:0.3985;stroke-linecap:butt;stroke-linejoin:miter;stroke-miterlimit:10;stroke-dasharray:none;stroke-opacity:1"
             id="path40" /><g
             id="g42"><path
               d="m 33.7504,7.17316 c 2.97125,0 5.37986,-2.40862 5.37986,-5.37989 0,-2.97123 -2.40861,-5.37985 -5.37986,-5.37985 H 25.68066 V 7.17316 Z"
               style="fill:none;stroke:#000000;stroke-width:0.3985;stroke-linecap:butt;stroke-linejoin:miter;stroke-miterlimit:10;stroke-dasharray:none;stroke-opacity:1"
               id="path44" /><g
               id="g46"
               transform="matrix(0.75,0,0,0.75,31.957,1.793)"><g
                 id="g48" /><g
                 id="g50"
                 transform="translate(-31.957,-1.793)" /></g></g><g
             id="g52"><path
               d="m 31.06055,20.31041 c 3.84362,0 7.39645,-2.05119 9.31825,-5.37988 -1.9218,-3.32869 -5.47463,-5.3799 -9.31825,-5.3799 l -5.37989,3e-5 c 0.80468,1.70715 1.21875,3.53294 1.21875,5.37416 0,1.84122 -0.41407,3.66701 -1.21875,5.37416 z M 23.88731,9.55066 23.97975,9.71402 m 0,0 0.08965,0.16518 m 0,0 0.08668,0.16647 m 0,0 0.08374,0.16812 m 0,0 0.08094,0.16945 m 0,0 0.07781,0.17091 m 0,0 0.07488,0.17221 m 0,0 0.0719,0.17354 m 0,0 0.06879,0.1747 m 0,0 0.06584,0.17583 m 0,0 0.06272,0.17698 m 0,0 0.05959,0.17814 m 0,0 0.05632,0.17913 m 0,0 0.05336,0.1801 m 0,0 0.05023,0.18092 m 0,0 0.04712,0.18192 m 0,0 0.04369,0.18258 m 0,0 0.04071,0.18324 m 0,0 0.03744,0.18403 m 0,0 0.03431,0.18469 m 0,0 0.03086,0.1852 m 0,0 0.02775,0.1857 m 0,0 0.02462,0.18617 m 0,0 0.0212,0.18668 m 0,0 0.01788,0.18684 m 0,0 0.01479,0.18717 m 0,0 0.01149,0.1875 m 0,0 0.0082,0.18765 m 0,0 0.0049,0.18767 m 0,0 0.0016,0.1878 m 0,0 -0.0016,0.18781 m 0,0 -0.0049,0.18767 m 0,0 -0.0082,0.18765 m 0,0 -0.01149,0.1875 m 0,0 -0.01479,0.18716 m 0,0 -0.01788,0.18683 m 0,0 -0.0212,0.18669 m 0,0 -0.02462,0.18617 m 0,0 -0.02775,0.1857 m 0,0 -0.03086,0.18518 m 0,0 -0.03431,0.18471 m 0,0 -0.03744,0.18404 m 0,0 -0.04071,0.18324 m 0,0 -0.04369,0.18256 m 0,0 -0.04712,0.18193 m 0,0 -0.05023,0.18091 m 0,0 -0.05336,0.1801 m 0,0 -0.05632,0.17915 m 0,0 -0.05959,0.17813 m 0,0 -0.06272,0.17699 m 0,0 -0.06584,0.17581 m 0,0 -0.06879,0.17471 m 0,0 -0.0719,0.17352 m 0,0 -0.07488,0.17223 m 0,0 -0.07781,0.17091 m 0,0 -0.08094,0.16946 m 0,0 -0.08374,0.1681 m 0,0 -0.08668,0.16649 m 0,0 -0.08965,0.16516 m 0,0 -0.09244,0.16336"
               style="fill:none;stroke:#000000;stroke-width:0.3985;stroke-linecap:butt;stroke-linejoin:miter;stroke-miterlimit:10;stroke-dasharray:none;stroke-opacity:1"
               id="path54" /><g
               id="g56"
               transform="matrix(0.75,0,0,0.75,31.957,14.93)"><g
                 id="g58" /><g
                 id="g60"
                 transform="translate(-31.957,-14.93)" /></g></g><path
             d="M 39.27971,1.79327 H 56.21666"
             style="fill:none;stroke:#000000;stroke-width:0.3985;stroke-linecap:butt;stroke-linejoin:miter;stroke-miterlimit:10;stroke-dasharray:none;stroke-opacity:1"
             id="path62" /><g
             id="g64"><path
               d="m 60.45773,5.37987 c 3.84362,0 7.39644,-2.05121 9.31826,-5.37987 -1.92182,-3.32869 -5.47464,-5.3799 -9.31826,-5.3799 l -5.37989,3e-5 c 0.9441,1.63526 1.44151,3.49166 1.44151,5.37987 0,1.88821 -0.49741,3.74461 -1.44151,5.37987 z"
               style="fill:none;stroke:#000000;stroke-width:0.3985;stroke-linecap:butt;stroke-linejoin:miter;stroke-miterlimit:10;stroke-dasharray:none;stroke-opacity:1"
               id="path66" /><g
               id="g68"
               transform="matrix(0.75,0,0,0.75,61.354,0)"><g
                 id="g70" /><g
                 id="g72"
                 transform="translate(-61.354)" /></g></g><path
             d="M 56.21666,-1.79327 H 51.98242 V -13.13725 H 7.32257"
             style="fill:none;stroke:#000000;stroke-width:0.3985;stroke-linecap:butt;stroke-linejoin:miter;stroke-miterlimit:10;stroke-dasharray:none;stroke-opacity:1"
             id="path74" /><path
             d="M -6.9309,1.79327 H -21.75072"
             style="fill:none;stroke:#000000;stroke-width:0.3985;stroke-linecap:butt;stroke-linejoin:miter;stroke-miterlimit:10;stroke-dasharray:none;stroke-opacity:1"
             id="path76" /><g
             id="g78" /><g
             id="g80"><g
               id="g82"
               transform="translate(-29.006,0.078)"><g
                 id="g84"><g
                   id="g86"
                   transform="translate(-11.791,-23.373)"><text
                     transform="matrix(1,0,0,-1,11.791,23.373)"
                     style="font-variant:normal;font-weight:normal;font-size:7.9701px;font-family:CMTT8;-inkscape-font-specification:CMTT8;writing-mode:lr-tb;fill:#000000;fill-opacity:1;fill-rule:nonzero;stroke:none"
                     id="text90"><tspan
                       x="0"
                       y="0"
                       id="tspan88">a</tspan></text><g
                     id="g92"
                     transform="translate(11.791,23.373)" /></g></g><g
                 id="g94"
                 transform="translate(29.006,-0.078)" /></g></g><path
             d="M -6.42598,-14.93054 H -21.2458"
             style="fill:none;stroke:#000000;stroke-width:0.3985;stroke-linecap:butt;stroke-linejoin:miter;stroke-miterlimit:10;stroke-dasharray:none;stroke-opacity:1"
             id="path96" /><g
             id="g98" /><g
             id="g100"><g
               id="g102"
               transform="translate(-28.501,-17.366)"><g
                 id="g104"><g
                   id="g106"
                   transform="translate(-12.296,-5.929)"><text
                     transform="matrix(1,0,0,-1,12.296,5.929)"
                     style="font-variant:normal;font-weight:normal;font-size:7.9701px;font-family:CMTT8;-inkscape-font-specification:CMTT8;writing-mode:lr-tb;fill:#000000;fill-opacity:1;fill-rule:nonzero;stroke:none"
                     id="text110"><tspan
                       x="0"
                       y="0"
                       id="tspan108">b</tspan></text><g
                     id="g112"
                     transform="translate(12.296,5.929)" /></g></g><g
                 id="g114"
                 transform="translate(28.501,17.366)" /></g></g><path
             d="m -6.9309,1.79327 h -4.23423 v -13.13723 h 4.73915"
             style="fill:none;stroke:#000000;stroke-width:0.3985;stroke-linecap:butt;stroke-linejoin:miter;stroke-miterlimit:10;stroke-dasharray:none;stroke-opacity:1"
             id="path116" /><g
             id="g118"><g
               id="g120"><path
                 d="m -9.96745,1.79327 c 0,0.66146 -0.53623,1.19768 -1.19768,1.19768 -0.66145,0 -1.19768,-0.53622 -1.19768,-1.19768 0,-0.66145 0.53623,-1.19766 1.19768,-1.19766 0.66145,0 1.19768,0.53621 1.19768,1.19766 z"
                 style="fill:#000000;fill-opacity:1;fill-rule:nonzero;stroke:none"
                 id="path122" /></g><g
               id="g124"
               transform="translate(-11.165,1.793)"><g
                 id="g126" /><g
                 id="g128"
                 transform="translate(11.165,-1.793)" /></g></g><path
             d="m -6.42598,-14.93054 h -8.46847 v 13.13727 h 7.96355"
             style="fill:none;stroke:#000000;stroke-width:0.3985;stroke-linecap:butt;stroke-linejoin:miter;stroke-miterlimit:10;stroke-dasharray:none;stroke-opacity:1"
             id="path130" /><g
             id="g132"><g
               id="g134"><path
                 d="m -13.69678,-14.93054 c 0,0.66145 -0.53622,1.19768 -1.19767,1.19768 -0.66146,0 -1.19767,-0.53623 -1.19767,-1.19768 0,-0.66146 0.53621,-1.19768 1.19767,-1.19768 0.66145,0 1.19767,0.53622 1.19767,1.19768 z"
                 style="fill:#000000;fill-opacity:1;fill-rule:nonzero;stroke:none"
                 id="path136" /></g><g
               id="g138"
               transform="translate(-14.894,-14.93)"><g
                 id="g140" /><g
                 id="g142"
                 transform="translate(14.894,14.93)" /></g></g><path
             d="M 25.02623,16.72383 H -21.75072"
             style="fill:none;stroke:#000000;stroke-width:0.3985;stroke-linecap:butt;stroke-linejoin:miter;stroke-miterlimit:10;stroke-dasharray:none;stroke-opacity:1"
             id="path144" /><g
             id="g146"><g
               id="g148"
               transform="translate(-37.475,14.288)"><g
                 id="g150"><g
                   id="g152"
                   transform="translate(-3.322,-37.583)"><text
                     transform="matrix(1,0,0,-1,3.322,37.583)"
                     style="font-variant:normal;font-weight:normal;font-size:7.9701px;font-family:CMTT8;-inkscape-font-specification:CMTT8;writing-mode:lr-tb;fill:#000000;fill-opacity:1;fill-rule:nonzero;stroke:none"
                     id="text156"><tspan
                       x="0 4.2345142 8.4690285"
                       y="0"
                       sodipodi:role="line"
                       id="tspan154">cin</tspan></text><g
                     id="g158"
                     transform="translate(3.322,37.583)" /></g></g><g
                 id="g160"
                 transform="translate(37.475,-14.288)" /></g></g><path
             d="M 25.02623,16.72383 H 20.79199 V 3.58656 h 4.73917"
             style="fill:none;stroke:#000000;stroke-width:0.3985;stroke-linecap:butt;stroke-linejoin:miter;stroke-miterlimit:10;stroke-dasharray:none;stroke-opacity:1"
             id="path162" /><g
             id="g164"><g
               id="g166"><path
                 d="m 21.98967,16.72383 c 0,0.66145 -0.53622,1.19767 -1.19768,1.19767 -0.66145,0 -1.19766,-0.53622 -1.19766,-1.19767 0,-0.66145 0.53621,-1.19768 1.19766,-1.19768 0.66146,0 1.19768,0.53623 1.19768,1.19768 z"
                 style="fill:#000000;fill-opacity:1;fill-rule:nonzero;stroke:none"
                 id="path168" /></g><g
               id="g170"
               transform="translate(20.792,16.724)"><g
                 id="g172" /><g
                 id="g174"
                 transform="translate(-20.792,-16.724)" /></g></g><path
             d="m 25.53116,0 h -8.46848 v 13.13725 h 7.96355"
             style="fill:none;stroke:#000000;stroke-width:0.3985;stroke-linecap:butt;stroke-linejoin:miter;stroke-miterlimit:10;stroke-dasharray:none;stroke-opacity:1"
             id="path176" /><g
             id="g178"><g
               id="g180"><path
                 d="m 18.26035,0 c 0,0.66145 -0.53621,1.19766 -1.19767,1.19766 C 16.40123,1.19766 15.865,0.66145 15.865,0 c 0,-0.66145 0.53623,-1.19766 1.19768,-1.19766 0.66146,0 1.19767,0.53621 1.19767,1.19766 z"
                 style="fill:#000000;fill-opacity:1;fill-rule:nonzero;stroke:none"
                 id="path182" /></g><g
               id="g184"
               transform="translate(17.063)"><g
                 id="g186" /><g
                 id="g188"
                 transform="translate(-17.063)" /></g></g><path
             d="m 69.94852,0 h 4.23423"
             style="fill:none;stroke:#000000;stroke-width:0.3985;stroke-linecap:butt;stroke-linejoin:miter;stroke-miterlimit:10;stroke-dasharray:none;stroke-opacity:1"
             id="path190" /><g
             id="g192" /><g
             id="g194"><g
               id="g196"
               transform="translate(77.204,-2.206)"><g
                 id="g198"><g
                   id="g200"
                   transform="translate(-118.001,-21.089)"><text
                     transform="matrix(1,0,0,-1,118.001,21.089)"
                     style="font-variant:normal;font-weight:normal;font-size:7.9701px;font-family:CMTT8;-inkscape-font-specification:CMTT8;writing-mode:lr-tb;fill:#000000;fill-opacity:1;fill-rule:nonzero;stroke:none"
                     id="text204"><tspan
                       x="0 4.2345142 8.4690285 12.703543"
                       y="0"
                       sodipodi:role="line"
                       id="tspan202">cout</tspan></text><g
                     id="g206"
                     transform="translate(118.001,21.089)" /></g></g><g
                 id="g208"
                 transform="translate(-77.204,2.206)" /></g></g><path
             d="m 40.55135,14.93054 h 33.6314"
             style="fill:none;stroke:#000000;stroke-width:0.3985;stroke-linecap:butt;stroke-linejoin:miter;stroke-miterlimit:10;stroke-dasharray:none;stroke-opacity:1"
             id="path210" /><g
             id="g212"><g
               id="g214"
               transform="translate(77.204,13.215)"><g
                 id="g216"><g
                   id="g218"
                   transform="translate(-118.001,-36.51)"><text
                     transform="matrix(1,0,0,-1,118.001,36.51)"
                     style="font-variant:normal;font-weight:normal;font-size:7.9701px;font-family:CMTT8;-inkscape-font-specification:CMTT8;writing-mode:lr-tb;fill:#000000;fill-opacity:1;fill-rule:nonzero;stroke:none"
                     id="text222"><tspan
                       x="0 4.2345142 8.4690285"
                       y="0"
                       sodipodi:role="line"
                       id="tspan220">sum</tspan></text><g
                     id="g224"
                     transform="translate(118.001,36.51)" /></g></g><g
                 id="g226"
                 transform="translate(-77.204,-13.215)" /></g></g><g
             id="g228"><g
               id="g230"
               transform="translate(10.711,-5.95)"><g
                 id="g232"><g
                   id="g234"
                   transform="translate(-51.508,-17.345)"><text
                     transform="matrix(1,0,0,-1,51.508,17.345)"
                     style="font-variant:normal;font-weight:normal;font-size:7.9701px;font-family:CMTT8;-inkscape-font-specification:CMTT8;writing-mode:lr-tb;fill:#000000;fill-opacity:1;fill-rule:nonzero;stroke:none"
                     id="text238"><tspan
                       x="0"
                       y="0"
                       id="tspan236">x</tspan></text><g
                     id="g240"
                     transform="translate(51.508,17.345)" /></g></g><g
                 id="g242"
                 transform="translate(-10.711,5.95)" /></g></g><g
             id="g244"><g
               id="g246"
               transform="translate(9.44,-18.201)"><g
                 id="g248"><g
                   id="g250"
                   transform="translate(-50.237,-5.094)"><text
                     transform="matrix(1,0,0,-1,50.237,5.094)"
                     style="font-variant:normal;font-weight:normal;font-size:7.9701px;font-family:CMTT8;-inkscape-font-specification:CMTT8;writing-mode:lr-tb;fill:#000000;fill-opacity:1;fill-rule:nonzero;stroke:none"
                     id="text254"><tspan
                       x="0"
                       y="0"
                       id="tspan252">y</tspan></text><g
                     id="g256"
                     transform="translate(50.237,5.094)" /></g></g><g
                 id="g258"
                 transform="translate(-9.44,18.201)" /></g></g><g
             id="g260"><g
               id="g262"
               transform="translate(41.397,-4.157)"><g
                 id="g264"><g
                   id="g266"
                   transform="translate(-82.194,-19.138)"><text
                     transform="matrix(1,0,0,-1,82.194,19.138)"
                     style="font-variant:normal;font-weight:normal;font-size:7.9701px;font-family:CMTT8;-inkscape-font-specification:CMTT8;writing-mode:lr-tb;fill:#000000;fill-opacity:1;fill-rule:nonzero;stroke:none"
                     id="text270"><tspan
                       x="0"
                       y="0"
                       id="tspan268">z</tspan></text><g
                     id="g272"
                     transform="translate(82.194,19.138)" /></g></g><g
                 id="g274"
                 transform="translate(-41.397,4.157)" /></g></g></g></g></g></g></svg>
