P3
208 16
255
0 0 0  0 0 0  0 0 0  0 0 0  0 0 0  0 0 0  0 0 0  0 0 0  0 0 0  0 0 0  0 0 0  0 0 0  0 0 0  0 0 0  0 0 0  0 0 0  255 255 255  255 255 255  255 255 255  255 255 255  255 255 255  255 255 255  255 255 255  255 255 255  255 255 255  255 255 255  255 255 255  255 255 255  255 255 255  255 255 255  255 255 255  255 255 255  255 0 0  255 0 0  255 0 0  255 0 0  255 0 0  255 0 0  255 0 0  255 0 0  255 0 0  255 0 0  255 0 0  255 0 0  255 0 0  255 0 0  255 0 0  255 0 0  0 255 0  0 255 0  0 255 0  0 255 0  0 255 0  0 255 0  0 255 0  0 255 0  0 255 0  0 255 0  0 255 0  0 255 0  0 255 0  0 255 0  0 255 0  0 255 0  0 0 255  0 0 255  0 0 255  0 0 255  0 0 255  0 0 255  0 0 255  0 0 255  0 0 255  0 0 255  0 0 255  0 0 255  0 0 255  0 0 255  0 0 255  0 0 255  255 128 0  255 128 0  255 128 0  255 128 0  255 128 0  255 128 0  255 128 0  255 128 0  255 128 0  255 128 0  255 128 0  255 128 0  255 128 0  255 128 0  255 128 0  255 128 0  102 0 204  102 0 204  102 0 204  102 0 204  102 0 204  102 0 204  102 0 204  102 0 204  102 0 204  102 0 204  102 0 204  102 0 204  102 0 204  102 0 204  102 0 204  102 0 204  0 255 255  0 255 255  0 255 255  0 255 255  0 255 255  0 255 255  0 255 255  0 255 255  0 255 255  0 255 255  0 255 255  0 255 255  0 255 255  0 255 255  0 255 255  0 255 255  255 255 0  255 255 0  255 255 0  255 255 0  255 255 0  255 255 0  255 255 0  255 255 0  255 255 0  255 255 0  255 255 0  255 255 0  255 255 0  255 255 0  255 255 0  255 255 0  255 0 255  255 0 255  255 0 255  255 0 255  255 0 255  255 0 255  255 0 255  255 0 255  255 0 255  255 0 255  255 0 255  255 0 255  255 0 255  255 0 255  255 0 255  255 0 255  255 170 170  255 170 170  255 170 170  255 170 170  255 170 170  255 170 170  255 170 170  255 170 170  255 170 170  255 170 170  255 170 170  255 170 170  255 170 170  255 170 170  255 170 170  255 170 170  128 128 128  128 128 128  128 128 128  128 128 128  128 128 128  128 128 128  128 128 128  128 128 128  128 128 128  128 128 128  128 128 128  128 128 128  128 128 128  128 128 128  128 128 128  128 128 128  128 64 0  128 64 0  128 64 0  128 64 0  128 64 0  128 64 0  128 64 0  128 64 0  128 64 0  128 64 0  128 64 0  128 64 0  128 64 0  128 64 0  128 64 0  128 64 0
0 0 0  0 0 0  0 0 0  0 0 0  0 0 0  0 0 0  0 0 0  0 0 0  0 0 0  0 0 0  0 0 0  0 0 0  0 0 0  0 0 0  0 0 0  0 0 0  255 255 255  255 255 255  255 255 255  255 255 255  255 255 255  255 255 255  255 255 255  255 255 255  255 255 255  255 255 255  255 255 255  255 255 255  255 255 255  255 255 255  255 255 255  255 255 255  255 0 0  255 0 0  255 0 0  255 0 0  255 0 0  255 0 0  255 0 0  255 0 0  255 0 0  255 0 0  255 0 0  255 0 0  255 0 0  255 0 0  255 0 0  255 0 0  0 255 0  0 255 0  0 255 0  0 255 0  0 255 0  0 255 0  0 255 0  0 255 0  0 255 0  0 255 0  0 255 0  0 255 0  0 255 0  0 255 0  0 255 0  0 255 0  0 0 255  0 0 255  0 0 255  0 0 255  0 0 255  0 0 255  0 0 255  0 0 255  0 0 255  0 0 255  0 0 255  0 0 255  0 0 255  0 0 255  0 0 255  0 0 255  255 128 0  255 128 0  255 128 0  255 128 0  255 128 0  255 128 0  255 128 0  255 128 0  255 128 0  255 128 0  255 128 0  255 128 0  255 128 0  255 128 0  255 128 0  255 128 0  102 0 204  102 0 204  102 0 204  102 0 204  102 0 204  102 0 204  102 0 204  102 0 204  102 0 204  102 0 204  102 0 204  102 0 204  102 0 204  102 0 204  102 0 204  102 0 204  0 255 255  0 255 255  0 255 255  0 255 255  0 255 255  0 255 255  0 255 255  0 255 255  0 255 255  0 255 255  0 255 255  0 255 255  0 255 255  0 255 255  0 255 255  0 255 255  255 255 0  255 255 0  255 255 0  255 255 0  255 255 0  255 255 0  255 255 0  255 255 0  255 255 0  255 255 0  255 255 0  255 255 0  255 255 0  255 255 0  255 255 0  255 255 0  255 0 255  255 0 255  255 0 255  255 0 255  255 0 255  255 0 255  255 0 255  255 0 255  255 0 255  255 0 255  255 0 255  255 0 255  255 0 255  255 0 255  255 0 255  255 0 255  255 170 170  255 170 170  255 170 170  255 170 170  255 170 170  255 170 170  255 170 170  255 170 170  255 170 170  255 170 170  255 170 170  255 170 170  255 170 170  255 170 170  255 170 170  255 170 170  128 128 128  128 128 128  128 128 128  128 128 128  128 128 128  128 128 128  128 128 128  128 128 128  128 128 128  128 128 128  128 128 128  128 128 128  128 128 128  128 128 128  128 128 128  128 128 128  128 64 0  128 64 0  128 64 0  128 64 0  128 64 0  128 64 0  128 64 0  128 64 0  128 64 0  128 64 0  128 64 0  128 64 0  128 64 0  128 64 0  128 64 0  128 64 0
0 0 0  0 0 0  0 0 0  0 0 0  0 0 0  0 0 0  0 0 0  0 0 0  0 0 0  0 0 0  0 0 0  0 0 0  0 0 0  0 0 0  0 0 0  0 0 0  255 255 255  255 255 255  255 255 255  255 255 255  255 255 255  255 255 255  255 255 255  255 255 255  255 255 255  255 255 255  255 255 255  255 255 255  255 255 255  255 255 255  255 255 255  255 255 255  255 0 0  255 0 0  255 0 0  255 0 0  255 0 0  255 0 0  255 0 0  255 0 0  255 0 0  255 0 0  255 0 0  255 0 0  255 0 0  255 0 0  255 0 0  255 0 0  0 255 0  0 255 0  0 255 0  0 255 0  0 255 0  0 255 0  0 255 0  0 255 0  0 255 0  0 255 0  0 255 0  0 255 0  0 255 0  0 255 0  0 255 0  0 255 0  0 0 255  0 0 255  0 0 255  0 0 255  0 0 255  0 0 255  0 0 255  0 0 255  0 0 255  0 0 255  0 0 255  0 0 255  0 0 255  0 0 255  0 0 255  0 0 255  255 128 0  255 128 0  255 128 0  255 128 0  255 128 0  255 128 0  255 128 0  255 128 0  255 128 0  255 128 0  255 128 0  255 128 0  255 128 0  255 128 0  255 128 0  255 128 0  102 0 204  102 0 204  102 0 204  102 0 204  102 0 204  102 0 204  102 0 204  102 0 204  102 0 204  102 0 204  102 0 204  102 0 204  102 0 204  102 0 204  102 0 204  102 0 204  0 255 255  0 255 255  0 255 255  0 255 255  0 255 255  0 255 255  0 255 255  0 255 255  0 255 255  0 255 255  0 255 255  0 255 255  0 255 255  0 255 255  0 255 255  0 255 255  255 255 0  255 255 0  255 255 0  255 255 0  255 255 0  255 255 0  255 255 0  255 255 0  255 255 0  255 255 0  255 255 0  255 255 0  255 255 0  255 255 0  255 255 0  255 255 0  255 0 255  255 0 255  255 0 255  255 0 255  255 0 255  255 0 255  255 0 255  255 0 255  255 0 255  255 0 255  255 0 255  255 0 255  255 0 255  255 0 255  255 0 255  255 0 255  255 170 170  255 170 170  255 170 170  255 170 170  255 170 170  255 170 170  255 170 170  255 170 170  255 170 170  255 170 170  255 170 170  255 170 170  255 170 170  255 170 170  255 170 170  255 170 170  128 128 128  128 128 128  128 128 128  128 128 128  128 128 128  128 128 128  128 128 128  128 128 128  128 128 128  128 128 128  128 128 128  128 128 128  128 128 128  128 128 128  128 128 128  128 128 128  128 64 0  128 64 0  128 64 0  128 64 0  128 64 0  128 64 0  128 64 0  128 64 0  128 64 0  128 64 0  128 64 0  128 64 0  128 64 0  128 64 0  128 64 0  128 64 0
0 0 0  0 0 0  0 0 0  0 0 0  0 0 0  0 0 0  0 0 0  0 0 0  0 0 0  0 0 0  0 0 0  0 0 0  0 0 0  0 0 0  0 0 0  0 0 0  255 255 255  255 255 255  255 255 255  255 255 255  255 255 255  255 255 255  255 255 255  255 255 255  255 255 255  255 255 255  255 255 255  255 255 255  255 255 255  255 255 255  255 255 255  255 255 255  255 0 0  255 0 0  255 0 0  255 0 0  255 0 0  255 0 0  255 0 0  255 0 0  255 0 0  255 0 0  255 0 0  255 0 0  255 0 0  255 0 0  255 0 0  255 0 0  0 255 0  0 255 0  0 255 0  0 255 0  0 255 0  0 255 0  0 255 0  0 255 0  0 255 0  0 255 0  0 255 0  0 255 0  0 255 0  0 255 0  0 255 0  0 255 0  0 0 255  0 0 255  0 0 255  0 0 255  0 0 255  0 0 255  0 0 255  0 0 255  0 0 255  0 0 255  0 0 255  0 0 255  0 0 255  0 0 255  0 0 255  0 0 255  255 128 0  255 128 0  255 128 0  255 128 0  255 128 0  255 128 0  255 128 0  255 128 0  255 128 0  255 128 0  255 128 0  255 128 0  255 128 0  255 128 0  255 128 0  255 128 0  102 0 204  102 0 204  102 0 204  102 0 204  102 0 204  102 0 204  102 0 204  102 0 204  102 0 204  102 0 204  102 0 204  102 0 204  102 0 204  102 0 204  102 0 204  102 0 204  0 255 255  0 255 255  0 255 255  0 255 255  0 255 255  0 255 255  0 255 255  0 255 255  0 255 255  0 255 255  0 255 255  0 255 255  0 255 255  0 255 255  0 255 255  0 255 255  255 255 0  255 255 0  255 255 0  255 255 0  255 255 0  255 255 0  255 255 0  255 255 0  255 255 0  255 255 0  255 255 0  255 255 0  255 255 0  255 255 0  255 255 0  255 255 0  255 0 255  255 0 255  255 0 255  255 0 255  255 0 255  255 0 255  255 0 255  255 0 255  255 0 255  255 0 255  255 0 255  255 0 255  255 0 255  255 0 255  255 0 255  255 0 255  255 170 170  255 170 170  255 170 170  255 170 170  255 170 170  255 170 170  255 170 170  255 170 170  255 170 170  255 170 170  255 170 170  255 170 170  255 170 170  255 170 170  255 170 170  255 170 170  128 128 128  128 128 128  128 128 128  128 128 128  128 128 128  128 128 128  128 128 128  128 128 128  128 128 128  128 128 128  128 128 128  128 128 128  128 128 128  128 128 128  128 128 128  128 128 128  128 64 0  128 64 0  128 64 0  128 64 0  128 64 0  128 64 0  128 64 0  128 64 0  128 64 0  128 64 0  128 64 0  128 64 0  128 64 0  128 64 0  128 64 0  128 64 0
0 0 0  0 0 0  0 0 0  0 0 0  0 0 0  0 0 0  0 0 0  0 0 0  0 0 0  0 0 0  0 0 0  0 0 0  0 0 0  0 0 0  0 0 0  0 0 0  255 255 255  255 255 255  255 255 255  255 255 255  255 255 255  255 255 255  255 255 255  255 255 255  255 255 255  255 255 255  255 255 255  255 255 255  255 255 255  255 255 255  255 255 255  255 255 255  255 0 0  255 0 0  255 0 0  255 0 0  255 0 0  255 0 0  255 0 0  255 0 0  255 0 0  255 0 0  255 0 0  255 0 0  255 0 0  255 0 0  255 0 0  255 0 0  0 255 0  0 255 0  0 255 0  0 255 0  0 255 0  0 255 0  0 255 0  0 255 0  0 255 0  0 255 0  0 255 0  0 255 0  0 255 0  0 255 0  0 255 0  0 255 0  0 0 255  0 0 255  0 0 255  0 0 255  0 0 255  0 0 255  0 0 255  0 0 255  0 0 255  0 0 255  0 0 255  0 0 255  0 0 255  0 0 255  0 0 255  0 0 255  255 128 0  255 128 0  255 128 0  255 128 0  255 128 0  255 128 0  255 128 0  255 128 0  255 128 0  255 128 0  255 128 0  255 128 0  255 128 0  255 128 0  255 128 0  255 128 0  102 0 204  102 0 204  102 0 204  102 0 204  102 0 204  102 0 204  102 0 204  102 0 204  102 0 204  102 0 204  102 0 204  102 0 204  102 0 204  102 0 204  102 0 204  102 0 204  0 255 255  0 255 255  0 255 255  0 255 255  0 255 255  0 255 255  0 255 255  0 255 255  0 255 255  0 255 255  0 255 255  0 255 255  0 255 255  0 255 255  0 255 255  0 255 255  255 255 0  255 255 0  255 255 0  255 255 0  255 255 0  255 255 0  255 255 0  255 255 0  255 255 0  255 255 0  255 255 0  255 255 0  255 255 0  255 255 0  255 255 0  255 255 0  255 0 255  255 0 255  255 0 255  255 0 255  255 0 255  255 0 255  255 0 255  255 0 255  255 0 255  255 0 255  255 0 255  255 0 255  255 0 255  255 0 255  255 0 255  255 0 255  255 170 170  255 170 170  255 170 170  255 170 170  255 170 170  255 170 170  255 170 170  255 170 170  255 170 170  255 170 170  255 170 170  255 170 170  255 170 170  255 170 170  255 170 170  255 170 170  128 128 128  128 128 128  128 128 128  128 128 128  128 128 128  128 128 128  128 128 128  128 128 128  128 128 128  128 128 128  128 128 128  128 128 128  128 128 128  128 128 128  128 128 128  128 128 128  128 64 0  128 64 0  128 64 0  128 64 0  128 64 0  128 64 0  128 64 0  128 64 0  128 64 0  128 64 0  128 64 0  128 64 0  128 64 0  128 64 0  128 64 0  128 64 0
0 0 0  0 0 0  0 0 0  0 0 0  0 0 0  0 0 0  0 0 0  0 0 0  0 0 0  0 0 0  0 0 0  0 0 0  0 0 0  0 0 0  0 0 0  0 0 0  255 255 255  255 255 255  255 255 255  255 255 255  255 255 255  255 255 255  255 255 255  255 255 255  255 255 255  255 255 255  255 255 255  255 255 255  255 255 255  255 255 255  255 255 255  255 255 255  255 0 0  255 0 0  255 0 0  255 0 0  255 0 0  255 0 0  255 0 0  255 0 0  255 0 0  255 0 0  255 0 0  255 0 0  255 0 0  255 0 0  255 0 0  255 0 0  0 255 0  0 255 0  0 255 0  0 255 0  0 255 0  0 255 0  0 255 0  0 255 0  0 255 0  0 255 0  0 255 0  0 255 0  0 255 0  0 255 0  0 255 0  0 255 0  0 0 255  0 0 255  0 0 255  0 0 255  0 0 255  0 0 255  0 0 255  0 0 255  0 0 255  0 0 255  0 0 255  0 0 255  0 0 255  0 0 255  0 0 255  0 0 255  255 128 0  255 128 0  255 128 0  255 128 0  255 128 0  255 128 0  255 128 0  255 128 0  255 128 0  255 128 0  255 128 0  255 128 0  255 128 0  255 128 0  255 128 0  255 128 0  102 0 204  102 0 204  102 0 204  102 0 204  102 0 204  102 0 204  102 0 204  102 0 204  102 0 204  102 0 204  102 0 204  102 0 204  102 0 204  102 0 204  102 0 204  102 0 204  0 255 255  0 255 255  0 255 255  0 255 255  0 255 255  0 255 255  0 255 255  0 255 255  0 255 255  0 255 255  0 255 255  0 255 255  0 255 255  0 255 255  0 255 255  0 255 255  255 255 0  255 255 0  255 255 0  255 255 0  255 255 0  255 255 0  255 255 0  255 255 0  255 255 0  255 255 0  255 255 0  255 255 0  255 255 0  255 255 0  255 255 0  255 255 0  255 0 255  255 0 255  255 0 255  255 0 255  255 0 255  255 0 255  255 0 255  255 0 255  255 0 255  255 0 255  255 0 255  255 0 255  255 0 255  255 0 255  255 0 255  255 0 255  255 170 170  255 170 170  255 170 170  255 170 170  255 170 170  255 170 170  255 170 170  255 170 170  255 170 170  255 170 170  255 170 170  255 170 170  255 170 170  255 170 170  255 170 170  255 170 170  128 128 128  128 128 128  128 128 128  128 128 128  128 128 128  128 128 128  128 128 128  128 128 128  128 128 128  128 128 128  128 128 128  128 128 128  128 128 128  128 128 128  128 128 128  128 128 128  128 64 0  128 64 0  128 64 0  128 64 0  128 64 0  128 64 0  128 64 0  128 64 0  128 64 0  128 64 0  128 64 0  128 64 0  128 64 0  128 64 0  128 64 0  128 64 0
0 0 0  0 0 0  0 0 0  0 0 0  0 0 0  0 0 0  0 0 0  0 0 0  0 0 0  0 0 0  0 0 0  0 0 0  0 0 0  0 0 0  0 0 0  0 0 0  255 255 255  255 255 255  255 255 255  255 255 255  255 255 255  255 255 255  255 255 255  255 255 255  255 255 255  255 255 255  255 255 255  255 255 255  255 255 255  255 255 255  255 255 255  255 255 255  255 0 0  255 0 0  255 0 0  255 0 0  255 0 0  255 0 0  255 0 0  255 0 0  255 0 0  255 0 0  255 0 0  255 0 0  255 0 0  255 0 0  255 0 0  255 0 0  0 255 0  0 255 0  0 255 0  0 255 0  0 255 0  0 255 0  0 255 0  0 255 0  0 255 0  0 255 0  0 255 0  0 255 0  0 255 0  0 255 0  0 255 0  0 255 0  0 0 255  0 0 255  0 0 255  0 0 255  0 0 255  0 0 255  0 0 255  0 0 255  0 0 255  0 0 255  0 0 255  0 0 255  0 0 255  0 0 255  0 0 255  0 0 255  255 128 0  255 128 0  255 128 0  255 128 0  255 128 0  255 128 0  255 128 0  255 128 0  255 128 0  255 128 0  255 128 0  255 128 0  255 128 0  255 128 0  255 128 0  255 128 0  102 0 204  102 0 204  102 0 204  102 0 204  102 0 204  102 0 204  102 0 204  102 0 204  102 0 204  102 0 204  102 0 204  102 0 204  102 0 204  102 0 204  102 0 204  102 0 204  0 255 255  0 255 255  0 255 255  0 255 255  0 255 255  0 255 255  0 255 255  0 255 255  0 255 255  0 255 255  0 255 255  0 255 255  0 255 255  0 255 255  0 255 255  0 255 255  255 255 0  255 255 0  255 255 0  255 255 0  255 255 0  255 255 0  255 255 0  255 255 0  255 255 0  255 255 0  255 255 0  255 255 0  255 255 0  255 255 0  255 255 0  255 255 0  255 0 255  255 0 255  255 0 255  255 0 255  255 0 255  255 0 255  255 0 255  255 0 255  255 0 255  255 0 255  255 0 255  255 0 255  255 0 255  255 0 255  255 0 255  255 0 255  255 170 170  255 170 170  255 170 170  255 170 170  255 170 170  255 170 170  255 170 170  255 170 170  255 170 170  255 170 170  255 170 170  255 170 170  255 170 170  255 170 170  255 170 170  255 170 170  128 128 128  128 128 128  128 128 128  128 128 128  128 128 128  128 128 128  128 128 128  128 128 128  128 128 128  128 128 128  128 128 128  128 128 128  128 128 128  128 128 128  128 128 128  128 128 128  128 64 0  128 64 0  128 64 0  128 64 0  128 64 0  128 64 0  128 64 0  128 64 0  128 64 0  128 64 0  128 64 0  128 64 0  128 64 0  128 64 0  128 64 0  128 64 0
0 0 0  0 0 0  0 0 0  0 0 0  0 0 0  0 0 0  0 0 0  0 0 0  0 0 0  0 0 0  0 0 0  0 0 0  0 0 0  0 0 0  0 0 0  0 0 0  255 255 255  255 255 255  255 255 255  255 255 255  255 255 255  255 255 255  255 255 255  255 255 255  255 255 255  255 255 255  255 255 255  255 255 255  255 255 255  255 255 255  255 255 255  255 255 255  255 0 0  255 0 0  255 0 0  255 0 0  255 0 0  255 0 0  255 0 0  255 0 0  255 0 0  255 0 0  255 0 0  255 0 0  255 0 0  255 0 0  255 0 0  255 0 0  0 255 0  0 255 0  0 255 0  0 255 0  0 255 0  0 255 0  0 255 0  0 255 0  0 255 0  0 255 0  0 255 0  0 255 0  0 255 0  0 255 0  0 255 0  0 255 0  0 0 255  0 0 255  0 0 255  0 0 255  0 0 255  0 0 255  0 0 255  0 0 255  0 0 255  0 0 255  0 0 255  0 0 255  0 0 255  0 0 255  0 0 255  0 0 255  255 128 0  255 128 0  255 128 0  255 128 0  255 128 0  255 128 0  255 128 0  255 128 0  255 128 0  255 128 0  255 128 0  255 128 0  255 128 0  255 128 0  255 128 0  255 128 0  102 0 204  102 0 204  102 0 204  102 0 204  102 0 204  102 0 204  102 0 204  102 0 204  102 0 204  102 0 204  102 0 204  102 0 204  102 0 204  102 0 204  102 0 204  102 0 204  0 255 255  0 255 255  0 255 255  0 255 255  0 255 255  0 255 255  0 255 255  0 255 255  0 255 255  0 255 255  0 255 255  0 255 255  0 255 255  0 255 255  0 255 255  0 255 255  255 255 0  255 255 0  255 255 0  255 255 0  255 255 0  255 255 0  255 255 0  255 255 0  255 255 0  255 255 0  255 255 0  255 255 0  255 255 0  255 255 0  255 255 0  255 255 0  255 0 255  255 0 255  255 0 255  255 0 255  255 0 255  255 0 255  255 0 255  255 0 255  255 0 255  255 0 255  255 0 255  255 0 255  255 0 255  255 0 255  255 0 255  255 0 255  255 170 170  255 170 170  255 170 170  255 170 170  255 170 170  255 170 170  255 170 170  255 170 170  255 170 170  255 170 170  255 170 170  255 170 170  255 170 170  255 170 170  255 170 170  255 170 170  128 128 128  128 128 128  128 128 128  128 128 128  128 128 128  128 128 128  128 128 128  128 128 128  128 128 128  128 128 128  128 128 128  128 128 128  128 128 128  128 128 128  128 128 128  128 128 128  128 64 0  128 64 0  128 64 0  128 64 0  128 64 0  128 64 0  128 64 0  128 64 0  128 64 0  128 64 0  128 64 0  128 64 0  128 64 0  128 64 0  128 64 0  128 64 0
0 0 0  0 0 0  0 0 0  0 0 0  0 0 0  0 0 0  0 0 0  0 0 0  0 0 0  0 0 0  0 0 0  0 0 0  0 0 0  0 0 0  0 0 0  0 0 0  255 255 255  255 255 255  255 255 255  255 255 255  255 255 255  255 255 255  255 255 255  255 255 255  255 255 255  255 255 255  255 255 255  255 255 255  255 255 255  255 255 255  255 255 255  255 255 255  255 0 0  255 0 0  255 0 0  255 0 0  255 0 0  255 0 0  255 0 0  255 0 0  255 0 0  255 0 0  255 0 0  255 0 0  255 0 0  255 0 0  255 0 0  255 0 0  0 255 0  0 255 0  0 255 0  0 255 0  0 255 0  0 255 0  0 255 0  0 255 0  0 255 0  0 255 0  0 255 0  0 255 0  0 255 0  0 255 0  0 255 0  0 255 0  0 0 255  0 0 255  0 0 255  0 0 255  0 0 255  0 0 255  0 0 255  0 0 255  0 0 255  0 0 255  0 0 255  0 0 255  0 0 255  0 0 255  0 0 255  0 0 255  255 128 0  255 128 0  255 128 0  255 128 0  255 128 0  255 128 0  255 128 0  255 128 0  255 128 0  255 128 0  255 128 0  255 128 0  255 128 0  255 128 0  255 128 0  255 128 0  102 0 204  102 0 204  102 0 204  102 0 204  102 0 204  102 0 204  102 0 204  102 0 204  102 0 204  102 0 204  102 0 204  102 0 204  102 0 204  102 0 204  102 0 204  102 0 204  0 255 255  0 255 255  0 255 255  0 255 255  0 255 255  0 255 255  0 255 255  0 255 255  0 255 255  0 255 255  0 255 255  0 255 255  0 255 255  0 255 255  0 255 255  0 255 255  255 255 0  255 255 0  255 255 0  255 255 0  255 255 0  255 255 0  255 255 0  255 255 0  255 255 0  255 255 0  255 255 0  255 255 0  255 255 0  255 255 0  255 255 0  255 255 0  255 0 255  255 0 255  255 0 255  255 0 255  255 0 255  255 0 255  255 0 255  255 0 255  255 0 255  255 0 255  255 0 255  255 0 255  255 0 255  255 0 255  255 0 255  255 0 255  255 170 170  255 170 170  255 170 170  255 170 170  255 170 170  255 170 170  255 170 170  255 170 170  255 170 170  255 170 170  255 170 170  255 170 170  255 170 170  255 170 170  255 170 170  255 170 170  128 128 128  128 128 128  128 128 128  128 128 128  128 128 128  128 128 128  128 128 128  128 128 128  128 128 128  128 128 128  128 128 128  128 128 128  128 128 128  128 128 128  128 128 128  128 128 128  128 64 0  128 64 0  128 64 0  128 64 0  128 64 0  128 64 0  128 64 0  128 64 0  128 64 0  128 64 0  128 64 0  128 64 0  128 64 0  128 64 0  128 64 0  128 64 0
0 0 0  0 0 0  0 0 0  0 0 0  0 0 0  0 0 0  0 0 0  0 0 0  0 0 0  0 0 0  0 0 0  0 0 0  0 0 0  0 0 0  0 0 0  0 0 0  255 255 255  255 255 255  255 255 255  255 255 255  255 255 255  255 255 255  255 255 255  255 255 255  255 255 255  255 255 255  255 255 255  255 255 255  255 255 255  255 255 255  255 255 255  255 255 255  255 0 0  255 0 0  255 0 0  255 0 0  255 0 0  255 0 0  255 0 0  255 0 0  255 0 0  255 0 0  255 0 0  255 0 0  255 0 0  255 0 0  255 0 0  255 0 0  0 255 0  0 255 0  0 255 0  0 255 0  0 255 0  0 255 0  0 255 0  0 255 0  0 255 0  0 255 0  0 255 0  0 255 0  0 255 0  0 255 0  0 255 0  0 255 0  0 0 255  0 0 255  0 0 255  0 0 255  0 0 255  0 0 255  0 0 255  0 0 255  0 0 255  0 0 255  0 0 255  0 0 255  0 0 255  0 0 255  0 0 255  0 0 255  255 128 0  255 128 0  255 128 0  255 128 0  255 128 0  255 128 0  255 128 0  255 128 0  255 128 0  255 128 0  255 128 0  255 128 0  255 128 0  255 128 0  255 128 0  255 128 0  102 0 204  102 0 204  102 0 204  102 0 204  102 0 204  102 0 204  102 0 204  102 0 204  102 0 204  102 0 204  102 0 204  102 0 204  102 0 204  102 0 204  102 0 204  102 0 204  0 255 255  0 255 255  0 255 255  0 255 255  0 255 255  0 255 255  0 255 255  0 255 255  0 255 255  0 255 255  0 255 255  0 255 255  0 255 255  0 255 255  0 255 255  0 255 255  255 255 0  255 255 0  255 255 0  255 255 0  255 255 0  255 255 0  255 255 0  255 255 0  255 255 0  255 255 0  255 255 0  255 255 0  255 255 0  255 255 0  255 255 0  255 255 0  255 0 255  255 0 255  255 0 255  255 0 255  255 0 255  255 0 255  255 0 255  255 0 255  255 0 255  255 0 255  255 0 255  255 0 255  255 0 255  255 0 255  255 0 255  255 0 255  255 170 170  255 170 170  255 170 170  255 170 170  255 170 170  255 170 170  255 170 170  255 170 170  255 170 170  255 170 170  255 170 170  255 170 170  255 170 170  255 170 170  255 170 170  255 170 170  128 128 128  128 128 128  128 128 128  128 128 128  128 128 128  128 128 128  128 128 128  128 128 128  128 128 128  128 128 128  128 128 128  128 128 128  128 128 128  128 128 128  128 128 128  128 128 128  128 64 0  128 64 0  128 64 0  128 64 0  128 64 0  128 64 0  128 64 0  128 64 0  128 64 0  128 64 0  128 64 0  128 64 0  128 64 0  128 64 0  128 64 0  128 64 0
0 0 0  0 0 0  0 0 0  0 0 0  0 0 0  0 0 0  0 0 0  0 0 0  0 0 0  0 0 0  0 0 0  0 0 0  0 0 0  0 0 0  0 0 0  0 0 0  255 255 255  255 255 255  255 255 255  255 255 255  255 255 255  255 255 255  255 255 255  255 255 255  255 255 255  255 255 255  255 255 255  255 255 255  255 255 255  255 255 255  255 255 255  255 255 255  255 0 0  255 0 0  255 0 0  255 0 0  255 0 0  255 0 0  255 0 0  255 0 0  255 0 0  255 0 0  255 0 0  255 0 0  255 0 0  255 0 0  255 0 0  255 0 0  0 255 0  0 255 0  0 255 0  0 255 0  0 255 0  0 255 0  0 255 0  0 255 0  0 255 0  0 255 0  0 255 0  0 255 0  0 255 0  0 255 0  0 255 0  0 255 0  0 0 255  0 0 255  0 0 255  0 0 255  0 0 255  0 0 255  0 0 255  0 0 255  0 0 255  0 0 255  0 0 255  0 0 255  0 0 255  0 0 255  0 0 255  0 0 255  255 128 0  255 128 0  255 128 0  255 128 0  255 128 0  255 128 0  255 128 0  255 128 0  255 128 0  255 128 0  255 128 0  255 128 0  255 128 0  255 128 0  255 128 0  255 128 0  102 0 204  102 0 204  102 0 204  102 0 204  102 0 204  102 0 204  102 0 204  102 0 204  102 0 204  102 0 204  102 0 204  102 0 204  102 0 204  102 0 204  102 0 204  102 0 204  0 255 255  0 255 255  0 255 255  0 255 255  0 255 255  0 255 255  0 255 255  0 255 255  0 255 255  0 255 255  0 255 255  0 255 255  0 255 255  0 255 255  0 255 255  0 255 255  255 255 0  255 255 0  255 255 0  255 255 0  255 255 0  255 255 0  255 255 0  255 255 0  255 255 0  255 255 0  255 255 0  255 255 0  255 255 0  255 255 0  255 255 0  255 255 0  255 0 255  255 0 255  255 0 255  255 0 255  255 0 255  255 0 255  255 0 255  255 0 255  255 0 255  255 0 255  255 0 255  255 0 255  255 0 255  255 0 255  255 0 255  255 0 255  255 170 170  255 170 170  255 170 170  255 170 170  255 170 170  255 170 170  255 170 170  255 170 170  255 170 170  255 170 170  255 170 170  255 170 170  255 170 170  255 170 170  255 170 170  255 170 170  128 128 128  128 128 128  128 128 128  128 128 128  128 128 128  128 128 128  128 128 128  128 128 128  128 128 128  128 128 128  128 128 128  128 128 128  128 128 128  128 128 128  128 128 128  128 128 128  128 64 0  128 64 0  128 64 0  128 64 0  128 64 0  128 64 0  128 64 0  128 64 0  128 64 0  128 64 0  128 64 0  128 64 0  128 64 0  128 64 0  128 64 0  128 64 0
0 0 0  0 0 0  0 0 0  0 0 0  0 0 0  0 0 0  0 0 0  0 0 0  0 0 0  0 0 0  0 0 0  0 0 0  0 0 0  0 0 0  0 0 0  0 0 0  255 255 255  255 255 255  255 255 255  255 255 255  255 255 255  255 255 255  255 255 255  255 255 255  255 255 255  255 255 255  255 255 255  255 255 255  255 255 255  255 255 255  255 255 255  255 255 255  255 0 0  255 0 0  255 0 0  255 0 0  255 0 0  255 0 0  255 0 0  255 0 0  255 0 0  255 0 0  255 0 0  255 0 0  255 0 0  255 0 0  255 0 0  255 0 0  0 255 0  0 255 0  0 255 0  0 255 0  0 255 0  0 255 0  0 255 0  0 255 0  0 255 0  0 255 0  0 255 0  0 255 0  0 255 0  0 255 0  0 255 0  0 255 0  0 0 255  0 0 255  0 0 255  0 0 255  0 0 255  0 0 255  0 0 255  0 0 255  0 0 255  0 0 255  0 0 255  0 0 255  0 0 255  0 0 255  0 0 255  0 0 255  255 128 0  255 128 0  255 128 0  255 128 0  255 128 0  255 128 0  255 128 0  255 128 0  255 128 0  255 128 0  255 128 0  255 128 0  255 128 0  255 128 0  255 128 0  255 128 0  102 0 204  102 0 204  102 0 204  102 0 204  102 0 204  102 0 204  102 0 204  102 0 204  102 0 204  102 0 204  102 0 204  102 0 204  102 0 204  102 0 204  102 0 204  102 0 204  0 255 255  0 255 255  0 255 255  0 255 255  0 255 255  0 255 255  0 255 255  0 255 255  0 255 255  0 255 255  0 255 255  0 255 255  0 255 255  0 255 255  0 255 255  0 255 255  255 255 0  255 255 0  255 255 0  255 255 0  255 255 0  255 255 0  255 255 0  255 255 0  255 255 0  255 255 0  255 255 0  255 255 0  255 255 0  255 255 0  255 255 0  255 255 0  255 0 255  255 0 255  255 0 255  255 0 255  255 0 255  255 0 255  255 0 255  255 0 255  255 0 255  255 0 255  255 0 255  255 0 255  255 0 255  255 0 255  255 0 255  255 0 255  255 170 170  255 170 170  255 170 170  255 170 170  255 170 170  255 170 170  255 170 170  255 170 170  255 170 170  255 170 170  255 170 170  255 170 170  255 170 170  255 170 170  255 170 170  255 170 170  128 128 128  128 128 128  128 128 128  128 128 128  128 128 128  128 128 128  128 128 128  128 128 128  128 128 128  128 128 128  128 128 128  128 128 128  128 128 128  128 128 128  128 128 128  128 128 128  128 64 0  128 64 0  128 64 0  128 64 0  128 64 0  128 64 0  128 64 0  128 64 0  128 64 0  128 64 0  128 64 0  128 64 0  128 64 0  128 64 0  128 64 0  128 64 0
0 0 0  0 0 0  0 0 0  0 0 0  0 0 0  0 0 0  0 0 0  0 0 0  0 0 0  0 0 0  0 0 0  0 0 0  0 0 0  0 0 0  0 0 0  0 0 0  255 255 255  255 255 255  255 255 255  255 255 255  255 255 255  255 255 255  255 255 255  255 255 255  255 255 255  255 255 255  255 255 255  255 255 255  255 255 255  255 255 255  255 255 255  255 255 255  255 0 0  255 0 0  255 0 0  255 0 0  255 0 0  255 0 0  255 0 0  255 0 0  255 0 0  255 0 0  255 0 0  255 0 0  255 0 0  255 0 0  255 0 0  255 0 0  0 255 0  0 255 0  0 255 0  0 255 0  0 255 0  0 255 0  0 255 0  0 255 0  0 255 0  0 255 0  0 255 0  0 255 0  0 255 0  0 255 0  0 255 0  0 255 0  0 0 255  0 0 255  0 0 255  0 0 255  0 0 255  0 0 255  0 0 255  0 0 255  0 0 255  0 0 255  0 0 255  0 0 255  0 0 255  0 0 255  0 0 255  0 0 255  255 128 0  255 128 0  255 128 0  255 128 0  255 128 0  255 128 0  255 128 0  255 128 0  255 128 0  255 128 0  255 128 0  255 128 0  255 128 0  255 128 0  255 128 0  255 128 0  102 0 204  102 0 204  102 0 204  102 0 204  102 0 204  102 0 204  102 0 204  102 0 204  102 0 204  102 0 204  102 0 204  102 0 204  102 0 204  102 0 204  102 0 204  102 0 204  0 255 255  0 255 255  0 255 255  0 255 255  0 255 255  0 255 255  0 255 255  0 255 255  0 255 255  0 255 255  0 255 255  0 255 255  0 255 255  0 255 255  0 255 255  0 255 255  255 255 0  255 255 0  255 255 0  255 255 0  255 255 0  255 255 0  255 255 0  255 255 0  255 255 0  255 255 0  255 255 0  255 255 0  255 255 0  255 255 0  255 255 0  255 255 0  255 0 255  255 0 255  255 0 255  255 0 255  255 0 255  255 0 255  255 0 255  255 0 255  255 0 255  255 0 255  255 0 255  255 0 255  255 0 255  255 0 255  255 0 255  255 0 255  255 170 170  255 170 170  255 170 170  255 170 170  255 170 170  255 170 170  255 170 170  255 170 170  255 170 170  255 170 170  255 170 170  255 170 170  255 170 170  255 170 170  255 170 170  255 170 170  128 128 128  128 128 128  128 128 128  128 128 128  128 128 128  128 128 128  128 128 128  128 128 128  128 128 128  128 128 128  128 128 128  128 128 128  128 128 128  128 128 128  128 128 128  128 128 128  128 64 0  128 64 0  128 64 0  128 64 0  128 64 0  128 64 0  128 64 0  128 64 0  128 64 0  128 64 0  128 64 0  128 64 0  128 64 0  128 64 0  128 64 0  128 64 0
0 0 0  0 0 0  0 0 0  0 0 0  0 0 0  0 0 0  0 0 0  0 0 0  0 0 0  0 0 0  0 0 0  0 0 0  0 0 0  0 0 0  0 0 0  0 0 0  255 255 255  255 255 255  255 255 255  255 255 255  255 255 255  255 255 255  255 255 255  255 255 255  255 255 255  255 255 255  255 255 255  255 255 255  255 255 255  255 255 255  255 255 255  255 255 255  255 0 0  255 0 0  255 0 0  255 0 0  255 0 0  255 0 0  255 0 0  255 0 0  255 0 0  255 0 0  255 0 0  255 0 0  255 0 0  255 0 0  255 0 0  255 0 0  0 255 0  0 255 0  0 255 0  0 255 0  0 255 0  0 255 0  0 255 0  0 255 0  0 255 0  0 255 0  0 255 0  0 255 0  0 255 0  0 255 0  0 255 0  0 255 0  0 0 255  0 0 255  0 0 255  0 0 255  0 0 255  0 0 255  0 0 255  0 0 255  0 0 255  0 0 255  0 0 255  0 0 255  0 0 255  0 0 255  0 0 255  0 0 255  255 128 0  255 128 0  255 128 0  255 128 0  255 128 0  255 128 0  255 128 0  255 128 0  255 128 0  255 128 0  255 128 0  255 128 0  255 128 0  255 128 0  255 128 0  255 128 0  102 0 204  102 0 204  102 0 204  102 0 204  102 0 204  102 0 204  102 0 204  102 0 204  102 0 204  102 0 204  102 0 204  102 0 204  102 0 204  102 0 204  102 0 204  102 0 204  0 255 255  0 255 255  0 255 255  0 255 255  0 255 255  0 255 255  0 255 255  0 255 255  0 255 255  0 255 255  0 255 255  0 255 255  0 255 255  0 255 255  0 255 255  0 255 255  255 255 0  255 255 0  255 255 0  255 255 0  255 255 0  255 255 0  255 255 0  255 255 0  255 255 0  255 255 0  255 255 0  255 255 0  255 255 0  255 255 0  255 255 0  255 255 0  255 0 255  255 0 255  255 0 255  255 0 255  255 0 255  255 0 255  255 0 255  255 0 255  255 0 255  255 0 255  255 0 255  255 0 255  255 0 255  255 0 255  255 0 255  255 0 255  255 170 170  255 170 170  255 170 170  255 170 170  255 170 170  255 170 170  255 170 170  255 170 170  255 170 170  255 170 170  255 170 170  255 170 170  255 170 170  255 170 170  255 170 170  255 170 170  128 128 128  128 128 128  128 128 128  128 128 128  128 128 128  128 128 128  128 128 128  128 128 128  128 128 128  128 128 128  128 128 128  128 128 128  128 128 128  128 128 128  128 128 128  128 128 128  128 64 0  128 64 0  128 64 0  128 64 0  128 64 0  128 64 0  128 64 0  128 64 0  128 64 0  128 64 0  128 64 0  128 64 0  128 64 0  128 64 0  128 64 0  128 64 0
0 0 0  0 0 0  0 0 0  0 0 0  0 0 0  0 0 0  0 0 0  0 0 0  0 0 0  0 0 0  0 0 0  0 0 0  0 0 0  0 0 0  0 0 0  0 0 0  255 255 255  255 255 255  255 255 255  255 255 255  255 255 255  255 255 255  255 255 255  255 255 255  255 255 255  255 255 255  255 255 255  255 255 255  255 255 255  255 255 255  255 255 255  255 255 255  255 0 0  255 0 0  255 0 0  255 0 0  255 0 0  255 0 0  255 0 0  255 0 0  255 0 0  255 0 0  255 0 0  255 0 0  255 0 0  255 0 0  255 0 0  255 0 0  0 255 0  0 255 0  0 255 0  0 255 0  0 255 0  0 255 0  0 255 0  0 255 0  0 255 0  0 255 0  0 255 0  0 255 0  0 255 0  0 255 0  0 255 0  0 255 0  0 0 255  0 0 255  0 0 255  0 0 255  0 0 255  0 0 255  0 0 255  0 0 255  0 0 255  0 0 255  0 0 255  0 0 255  0 0 255  0 0 255  0 0 255  0 0 255  255 128 0  255 128 0  255 128 0  255 128 0  255 128 0  255 128 0  255 128 0  255 128 0  255 128 0  255 128 0  255 128 0  255 128 0  255 128 0  255 128 0  255 128 0  255 128 0  102 0 204  102 0 204  102 0 204  102 0 204  102 0 204  102 0 204  102 0 204  102 0 204  102 0 204  102 0 204  102 0 204  102 0 204  102 0 204  102 0 204  102 0 204  102 0 204  0 255 255  0 255 255  0 255 255  0 255 255  0 255 255  0 255 255  0 255 255  0 255 255  0 255 255  0 255 255  0 255 255  0 255 255  0 255 255  0 255 255  0 255 255  0 255 255  255 255 0  255 255 0  255 255 0  255 255 0  255 255 0  255 255 0  255 255 0  255 255 0  255 255 0  255 255 0  255 255 0  255 255 0  255 255 0  255 255 0  255 255 0  255 255 0  255 0 255  255 0 255  255 0 255  255 0 255  255 0 255  255 0 255  255 0 255  255 0 255  255 0 255  255 0 255  255 0 255  255 0 255  255 0 255  255 0 255  255 0 255  255 0 255  255 170 170  255 170 170  255 170 170  255 170 170  255 170 170  255 170 170  255 170 170  255 170 170  255 170 170  255 170 170  255 170 170  255 170 170  255 170 170  255 170 170  255 170 170  255 170 170  128 128 128  128 128 128  128 128 128  128 128 128  128 128 128  128 128 128  128 128 128  128 128 128  128 128 128  128 128 128  128 128 128  128 128 128  128 128 128  128 128 128  128 128 128  128 128 128  128 64 0  128 64 0  128 64 0  128 64 0  128 64 0  128 64 0  128 64 0  128 64 0  128 64 0  128 64 0  128 64 0  128 64 0  128 64 0  128 64 0  128 64 0  128 64 0
0 0 0  0 0 0  0 0 0  0 0 0  0 0 0  0 0 0  0 0 0  0 0 0  0 0 0  0 0 0  0 0 0  0 0 0  0 0 0  0 0 0  0 0 0  0 0 0  255 255 255  255 255 255  255 255 255  255 255 255  255 255 255  255 255 255  255 255 255  255 255 255  255 255 255  255 255 255  255 255 255  255 255 255  255 255 255  255 255 255  255 255 255  255 255 255  255 0 0  255 0 0  255 0 0  255 0 0  255 0 0  255 0 0  255 0 0  255 0 0  255 0 0  255 0 0  255 0 0  255 0 0  255 0 0  255 0 0  255 0 0  255 0 0  0 255 0  0 255 0  0 255 0  0 255 0  0 255 0  0 255 0  0 255 0  0 255 0  0 255 0  0 255 0  0 255 0  0 255 0  0 255 0  0 255 0  0 255 0  0 255 0  0 0 255  0 0 255  0 0 255  0 0 255  0 0 255  0 0 255  0 0 255  0 0 255  0 0 255  0 0 255  0 0 255  0 0 255  0 0 255  0 0 255  0 0 255  0 0 255  255 128 0  255 128 0  255 128 0  255 128 0  255 128 0  255 128 0  255 128 0  255 128 0  255 128 0  255 128 0  255 128 0  255 128 0  255 128 0  255 128 0  255 128 0  255 128 0  102 0 204  102 0 204  102 0 204  102 0 204  102 0 204  102 0 204  102 0 204  102 0 204  102 0 204  102 0 204  102 0 204  102 0 204  102 0 204  102 0 204  102 0 204  102 0 204  0 255 255  0 255 255  0 255 255  0 255 255  0 255 255  0 255 255  0 255 255  0 255 255  0 255 255  0 255 255  0 255 255  0 255 255  0 255 255  0 255 255  0 255 255  0 255 255  255 255 0  255 255 0  255 255 0  255 255 0  255 255 0  255 255 0  255 255 0  255 255 0  255 255 0  255 255 0  255 255 0  255 255 0  255 255 0  255 255 0  255 255 0  255 255 0  255 0 255  255 0 255  255 0 255  255 0 255  255 0 255  255 0 255  255 0 255  255 0 255  255 0 255  255 0 255  255 0 255  255 0 255  255 0 255  255 0 255  255 0 255  255 0 255  255 170 170  255 170 170  255 170 170  255 170 170  255 170 170  255 170 170  255 170 170  255 170 170  255 170 170  255 170 170  255 170 170  255 170 170  255 170 170  255 170 170  255 170 170  255 170 170  128 128 128  128 128 128  128 128 128  128 128 128  128 128 128  128 128 128  128 128 128  128 128 128  128 128 128  128 128 128  128 128 128  128 128 128  128 128 128  128 128 128  128 128 128  128 128 128  128 64 0  128 64 0  128 64 0  128 64 0  128 64 0  128 64 0  128 64 0  128 64 0  128 64 0  128 64 0  128 64 0  128 64 0  128 64 0  128 64 0  128 64 0  128 64 0
