<?xml version="1.0" encoding="UTF-8" standalone="no"?>
<!-- Created with Inkscape (http://www.inkscape.org/) -->

<svg
   version="1.1"
   id="svg1"
   width="563.80933"
   height="92.409332"
   viewBox="0 0 563.80933 92.409332"
   sodipodi:docname="main.pdf"
   xmlns:inkscape="http://www.inkscape.org/namespaces/inkscape"
   xmlns:sodipodi="http://sodipodi.sourceforge.net/DTD/sodipodi-0.dtd"
   xmlns="http://www.w3.org/2000/svg"
   xmlns:svg="http://www.w3.org/2000/svg">
  <defs
     id="defs1" />
  <sodipodi:namedview
     id="namedview1"
     pagecolor="#ffffff"
     bordercolor="#666666"
     borderopacity="1.0"
     inkscape:showpageshadow="2"
     inkscape:pageopacity="0.0"
     inkscape:pagecheckerboard="0"
     inkscape:deskcolor="#d1d1d1">
    <inkscape:page
       x="0"
       y="0"
       inkscape:label="1"
       id="page1"
       width="563.80933"
       height="92.409332"
       margin="0"
       bleed="0" />
  </sodipodi:namedview>
  <g
     id="g1"
     inkscape:groupmode="layer"
     inkscape:label="1">
    <path
       id="path1"
       d="M 0,0 H 422.857 V 69.307 H 0 Z"
       style="fill:#ffffff;fill-opacity:1;fill-rule:nonzero;stroke:none"
       transform="matrix(1.3333333,0,0,-1.3333333,0,92.409333)" />
    <path
       id="path2"
       d="M -210.93134,-34.15381 V 34.15382 H 210.93134 V -34.15381 Z"
       style="fill:#ffffff;fill-opacity:1;fill-rule:nonzero;stroke:none"
       transform="matrix(1.3333333,0,0,-1.3333333,281.90533,46.205333)" />
    <path
       id="path3"
       d="M 14.2319,-17.203575 H 12.15065 V -9.6942 H 4.266275 v -7.509375 H 2.185025 V -4.5e-4 h 2.08125 V -8.184825 H 12.15065 V -4.5e-4 H 14.2319 Z M 25.756119,-7.01295 c 0,-2.334375 -1.659375,-3.946875 -3.890625,-3.946875 -1.0875,0 -2.278125,0.20625 -3.646875,0.99375 l 0.15,1.640625 c 0.61875,-0.45 1.6875,-1.171875 3.46875,-1.171875 1.265625,0 2.034375,0.965625 2.034375,2.503125 v 0.946875 c -3.965625,0.121875 -6.440625,1.265625 -6.440625,3.225 0,1.0125 0.61875,3.01875 2.671875,3.01875 0.375,0 2.38125,-0.046875 3.815625,-1.115625 v 0.91875 h 1.8375 z m -1.884375,3.740625 c 0,0.45 0,1.040625 -0.740625,1.490625 -0.646875,0.421875 -1.4625,0.46875 -1.809375,0.46875 -1.2375,0 -2.08125,-0.69375 -2.08125,-1.565625 0,-1.734375 3.8625,-1.903125 4.63125,-1.93125 z m 6.789843,-2.00625 c 0,-2.334375 1.70625,-3.890625 3.890625,-3.946875 v -1.63125 c -1.584374,0.02812 -3.075,0.815625 -3.965625,2.109375 v -1.9875 h -1.7625 V -4.5e-4 h 1.8375 z m 14.362501,-11.925 h -1.8375 V -9.6192 c -0.76875,-0.646875 -2.034375,-1.2375 -3.421875,-1.2375 -2.25,0 -4.040626,2.45625 -4.040626,5.53125 0,3.065625 1.7625,5.521875 3.965625,5.521875 1.715626,0 2.850001,-0.91875 3.450001,-1.434375 v 1.2375 h 1.884375 z M 43.139713,-3.3192 c 0,0.346875 0,0.7125 -0.76875,1.3875 -0.496875,0.421875 -1.087501,0.61875 -1.659375,0.61875 -1.340625,0 -3.103125,-0.99375 -3.103125,-3.99375 0,-3.121875 1.987499,-4.040625 3.346874,-4.040625 0.918751,0 1.659375,0.45 2.184376,1.190625 z m 19.305468,-7.340625 h -1.884375 l -1.3125,4.4625 c -0.271875,0.9375 -1.040625,3.54375 -1.14375,4.7625 h -0.02813 c -0.04687,-0.75 -0.46875,-2.53125 -1.1625,-4.884375 l -1.265625,-4.340625 h -1.70625 l -1.2375,4.2375 c -0.61875,2.15625 -1.096875,3.99375 -1.14375,4.9875 h -0.02813 c -0.09375,-1.4625 -1.115625,-4.884375 -1.25625,-5.428125 l -1.115625,-3.796875 h -1.940625 l 3.225,10.659375 h 1.884375 c 1.29375,-4.265625 2.278125,-7.55625 2.353125,-9.225 0.05625,0.825 0.46875,2.578125 0.721875,3.45 l 1.63125,5.775 h 2.184375 z m 9.009375,3.646875 c 0,-2.334375 -1.659375,-3.946875 -3.890625,-3.946875 -1.0875,0 -2.278125,0.20625 -3.646875,0.99375 l 0.15,1.640625 c 0.61875,-0.45 1.6875,-1.171875 3.46875,-1.171875 1.265625,0 2.034375,0.965625 2.034375,2.503125 v 0.946875 c -3.965625,0.121875 -6.440625,1.265625 -6.440625,3.225 0,1.0125 0.61875,3.01875 2.671875,3.01875 0.375,0 2.38125,-0.046875 3.815625,-1.115625 v 0.91875 h 1.8375 z m -1.884375,3.740625 c 0,0.45 0,1.040625 -0.740625,1.490625 -0.646875,0.421875 -1.4625,0.46875 -1.809375,0.46875 -1.2375,0 -2.08125,-0.69375 -2.08125,-1.565625 0,-1.734375 3.8625,-1.903125 4.63125,-1.93125 z m 6.792188,-2.00625 c 0,-2.334375 1.70625,-3.890625 3.890625,-3.946875 v -1.63125 c -1.584375,0.02812 -3.075,0.815625 -3.965625,2.109375 v -1.9875 h -1.7625 V -4.5e-4 h 1.8375 z m 13.938281,-0.15 c 0,-0.815625 -0.04687,-2.409375 -0.84375,-3.721875 -0.871875,-1.40625 -2.278125,-1.809375 -3.346875,-1.809375 -2.578125,0 -4.7625,2.428125 -4.7625,5.578125 0,3.075 2.259375,5.578125 5.109375,5.578125 1.115625,0 2.475,-0.31875 3.721875,-1.209375 0,-0.103125 -0.05625,-0.646875 -0.075,-0.675 0,-0.046875 -0.075,-0.815625 -0.075,-0.91875 -1.190625,0.965625 -2.559375,1.29375 -3.54375,1.29375 -1.59375,0 -3.3,-1.340625 -3.375,-4.115625 z M 83.3069,-6.78795 c 0.328125,-1.36875 1.415625,-2.653125 2.803125,-2.653125 0.375,0 2.109375,0.046875 2.55,2.653125 z m 27.78281,-2.45625 -1.19062,3.496875 c -0.19688,0.6375 -0.8625,2.653125 -1.0125,3.440625 h -0.0281 c -0.075,-0.496875 -0.21562,-1.0125 -0.61875,-2.278125 -0.225,-0.740625 -0.46875,-1.509375 -0.7125,-2.203125 l -3.675,-10.415625 h -2.89687 V -4.5e-4 h 1.93125 v -15.196875 h 0.0281 c 0,0.02812 0.225,1.115625 1.73438,5.45625 l 3.27187,9.346875 h 1.8375 l 2.94375,-8.30625 c 0.19688,-0.571875 0.81563,-2.38125 1.09688,-3.24375 0.24375,-0.75 0.8625,-2.578125 1.0125,-3.3 h 0.0281 V -4.5e-4 h 1.95 v -17.203125 h -2.86875 z m 18.91407,3.9375 c 0,-3.16875 -2.3625,-5.653125 -5.1375,-5.653125 -2.85,0 -5.15625,2.559375 -5.15625,5.653125 0,3.15 2.38125,5.503125 5.1375,5.503125 2.82187,0 5.15625,-2.428125 5.15625,-5.503125 z m -5.1375,3.946875 c -1.75313,0 -3.27188,-1.44375 -3.27188,-4.14375 0,-2.878125 1.7625,-3.9375 3.25313,-3.9375 1.6125,0 3.27187,1.1625 3.27187,3.9375 0,2.803125 -1.6125,4.14375 -3.25312,4.14375 z m 16.59375,-15.84375 h -1.8375 V -9.6192 c -0.76875,-0.646875 -2.03438,-1.2375 -3.42188,-1.2375 -2.25,0 -4.04062,2.45625 -4.04062,5.53125 0,3.065625 1.76249,5.521875 3.96562,5.521875 1.71563,0 2.85,-0.91875 3.45,-1.434375 v 1.2375 h 1.88438 z M 139.57565,-3.3192 c 0,0.346875 0,0.7125 -0.76875,1.3875 -0.49687,0.421875 -1.0875,0.61875 -1.65937,0.61875 -1.34063,0 -3.10313,-0.99375 -3.10313,-3.99375 0,-3.121875 1.9875,-4.040625 3.34687,-4.040625 0.91876,0 1.65938,0.45 2.18438,1.190625 z m 13.45781,-2.109375 c 0,-0.815625 -0.0469,-2.409375 -0.84375,-3.721875 -0.87187,-1.40625 -2.27812,-1.809375 -3.34687,-1.809375 -2.57813,0 -4.7625,2.428125 -4.7625,5.578125 0,3.075 2.25937,5.578125 5.10937,5.578125 1.11563,0 2.475,-0.31875 3.72188,-1.209375 0,-0.103125 -0.0562,-0.646875 -0.075,-0.675 0,-0.046875 -0.075,-0.815625 -0.075,-0.91875 -1.19063,0.965625 -2.55938,1.29375 -3.54375,1.29375 -1.59375,0 -3.3,-1.340625 -3.375,-4.115625 z m -6.99375,-1.359375 c 0.32813,-1.36875 1.41563,-2.653125 2.80313,-2.653125 0.375,0 2.10937,0.046875 2.55,2.653125 z m 11.32266,-10.415625 h -1.82813 V -4.5e-4 h 1.82813 z m 5.64844,0.890625 h -2.09063 v 2.08125 h 2.09063 z m -0.13125,5.653125 h -1.82813 V -4.5e-4 h 1.82813 z m 11.98828,3.421875 c 0,-1.565625 -0.36563,-3.61875 -3.16875,-3.61875 -1.58438,0 -2.625,0.815625 -3.31875,1.659375 v -1.5375 h -1.80938 V -4.5e-4 h 1.88438 v -6 c 0,-1.55625 0.59062,-3.346875 2.27812,-3.346875 2.18438,0 2.25,1.4625 2.25,2.30625 V -4.5e-4 h 1.88438 z m 12.89297,-3.61875 c -1.41563,0.02812 -2.63438,0.3 -3.61875,0.76875 -0.825,-0.646875 -1.66875,-0.76875 -2.23125,-0.76875 -2.15625,0 -3.79688,1.78125 -3.79688,3.8625 0,1.340625 0.74063,2.3625 0.79688,2.409375 -0.45,0.61875 -0.69375,1.284375 -0.69375,2.034375 0,0.8625 0.34687,1.48125 0.61875,1.828125 -1.29375,0.796875 -1.4625,2.00625 -1.4625,2.484375 0,1.809375 2.25,3.290625 5.15625,3.290625 2.925,0 5.175,-1.48125 5.175,-3.31875 0,-3.421875 -3.7875,-3.440625 -4.82813,-3.440625 h -2.00625 c -0.375,0 -1.36875,0 -1.36875,-1.265625 0,-0.496875 0.225,-0.825 0.25313,-0.84375 0.36562,0.271875 1.13437,0.69375 2.15625,0.69375 2.05312,0 3.75937,-1.734375 3.75937,-3.871875 0,-1.190625 -0.54375,-2.053125 -0.75937,-2.353125 h 0.0656 c 0.075,0 1.11563,-0.075 1.49063,-0.075 0.79687,0 0.87187,0.028125 1.56562,0.103125 z m -5.85,6.365625 c -0.84375,0 -2.03438,-0.515625 -2.03438,-2.503125 0,-2.15625 1.35938,-2.503125 2.00625,-2.503125 0.84375,0 2.03438,0.525 2.03438,2.503125 0,2.15625 -1.36875,2.503125 -2.00625,2.503125 z m 0.9375,4.59375 c 0.6,0 3.10312,0 3.10312,1.678125 0,1.06875 -1.5375,1.9125 -3.40312,1.9125 -1.88438,0 -3.42188,-0.815625 -3.42188,-1.93125 0,-0.121875 0,-1.659375 1.71563,-1.659375 z m 24.94218,-5.925 v -1.51875 h -11.625 v 1.51875 z m 29.40704,-11.38125 h -1.88438 l -2.08125,7.70625 c -0.32812,1.246875 -0.62812,2.484375 -0.91875,3.721875 -0.45,1.8375 -0.76875,3.121875 -0.825,3.76875 h -0.0187 c -0.0469,-0.675 -0.375,-2.08125 -0.76875,-3.665625 -0.3,-1.321875 -0.61875,-2.634375 -0.96562,-3.91875 l -2.0625,-7.6125 h -2.08125 l -1.95938,7.209375 -0.98437,3.946875 c -0.75,3.121875 -0.76875,3.571875 -0.825,4.059375 h -0.0188 c 0,-0.140625 -0.10313,-0.965625 -0.79688,-3.8625 -0.34687,-1.434375 -0.69375,-2.896875 -1.06875,-4.284375 l -1.90312,-7.06875 h -2.1375 l 4.71562,17.203125 h 2.05313 l 1.95937,-7.1625 0.99375,-3.946875 c 0.66563,-2.775 0.81563,-3.46875 0.8625,-4.0875 h 0.0281 c 0,0.103125 0.225,1.659375 1.19062,5.278125 l 2.625,9.91875 h 2.15625 z m 11.16328,0.815625 c -1.0875,-0.6375 -2.27813,-1.209375 -4.28438,-1.209375 -3.19687,0 -5.25937,2.353125 -5.25937,4.753125 0,0.946875 0.28125,2.015625 1.24687,3.103125 0.96563,1.0875 2.05313,1.3875 3.44063,1.734375 0.57187,0.15 1.5375,0.421875 1.71562,0.496875 1.3875,0.54375 2.05313,1.809375 2.05313,3 0,1.55625 -1.20938,3.225 -3.36563,3.225 -0.75,0 -2.925,-0.13125 -4.9875,-2.015625 l -0.34687,1.959375 c 2.03437,1.490625 4.2375,1.734375 5.35312,1.734375 3.04688,0 5.23125,-2.4 5.23125,-5.128125 0,-0.99375 -0.3,-2.259375 -1.34062,-3.421875 -1.0125,-1.115625 -1.90313,-1.359375 -3.9375,-1.903125 -1.1625,-0.3 -1.9125,-0.496875 -2.53125,-1.265625 -0.42188,-0.54375 -0.64688,-1.06875 -0.64688,-1.734375 0,-1.3875 1.19063,-2.90625 3.375,-2.90625 1.0875,0 2.50313,0.225 3.9375,1.565625 z m 16.29609,11.128125 c 0.69375,-0.7125 1.73438,-1.584375 2.45625,-2.446875 0.69375,-0.84375 1.6125,-2.034375 1.6125,-3.76875 0,-2.728125 -1.8375,-5.184375 -4.95937,-5.184375 -2.45625,0 -3.8625,1.5375 -4.5375,3.946875 l 0.96562,1.33125 c 0.54375,-2.25 1.3125,-3.69375 3.25313,-3.69375 2.12812,0 3.31875,1.74375 3.31875,3.646875 0,2.278125 -1.73438,4.040625 -3.04688,5.353125 -1.4625,1.4625 -2.90625,2.953125 -4.29375,4.490625 V -4.5e-4 h 9.3 v -1.6875 h -4.21875 c -0.29062,0 -0.59062,0.028125 -0.89062,0.028125 h -2.475 V -1.68795 Z m 15.94922,-2.85 c 0,-1.40625 -0.0281,-4.040625 -1.04063,-6.065625 -1.02187,-1.959375 -2.65312,-2.484375 -3.825,-2.484375 -1.67812,0 -3.12187,0.99375 -3.8625,2.578125 -0.79687,1.659375 -1.02187,3.375 -1.02187,5.971875 0,1.790625 0.075,3.965625 0.975,5.878125 1.0125,2.109375 2.71875,2.625 3.89062,2.625 1.5375,0 3.01875,-0.815625 3.8625,-2.521875 0.87188,-1.790625 1.02188,-3.75 1.02188,-5.98125 z m -4.88438,6.99375 c -1.88437,0 -2.45625,-2.15625 -2.63437,-2.878125 -0.29063,-1.2375 -0.34688,-2.428125 -0.34688,-4.3875 0,-1.5375 0,-3.271875 0.47813,-4.63125 0.5625,-1.584375 1.55625,-2.128125 2.50312,-2.128125 1.82813,0 2.42813,1.828125 2.625,2.475 0.375,1.3125 0.375,2.85 0.375,4.284375 0,2.30625 0,7.265625 -3,7.265625 z m 12.2461,-4.14375 c 0.69375,-0.7125 1.73437,-1.584375 2.45625,-2.446875 0.69375,-0.84375 1.6125,-2.034375 1.6125,-3.76875 0,-2.728125 -1.8375,-5.184375 -4.95938,-5.184375 -2.45625,0 -3.8625,1.5375 -4.5375,3.946875 l 0.96563,1.33125 c 0.54375,-2.25 1.3125,-3.69375 3.25312,-3.69375 2.12813,0 3.31875,1.74375 3.31875,3.646875 0,2.278125 -1.73437,4.040625 -3.04687,5.353125 -1.4625,1.4625 -2.90625,2.953125 -4.29375,4.490625 V -4.5e-4 h 9.3 v -1.6875 h -4.21875 c -0.29063,0 -0.59063,0.028125 -0.89063,0.028125 h -2.475 V -1.68795 Z m 13.98984,1.021875 h 2.25 v -1.509375 h -2.25 V -16.2567 h -2.18437 l -5.89688,10.509375 v 1.509375 h 6.12188 v 4.2375 h 1.95937 z m -6.17812,-1.509375 c 1.44375,-2.53125 4.29375,-7.640625 4.29375,-9.375 v 9.375 z m 0,0"
       style="fill:#000000;fill-opacity:1;fill-rule:nonzero;stroke:none"
       aria-label="HardwareModeling–WS2024"
       transform="matrix(1.6666667,0,0,1.6666667,27.842667,56.532)" />
  </g>
</svg>
