<?xml version="1.0" encoding="UTF-8" standalone="no"?>
<!-- Created with Inkscape (http://www.inkscape.org/) -->

<svg
   version="1.1"
   id="svg2"
   xml:space="preserve"
   width="350.888"
   height="167.70267"
   viewBox="0 0 350.888 167.70267"
   sodipodi:docname="main.pdf"
   xmlns:inkscape="http://www.inkscape.org/namespaces/inkscape"
   xmlns:sodipodi="http://sodipodi.sourceforge.net/DTD/sodipodi-0.dtd"
   xmlns="http://www.w3.org/2000/svg"
   xmlns:svg="http://www.w3.org/2000/svg"><defs
     id="defs6" /><sodipodi:namedview
     id="namedview4"
     pagecolor="#ffffff"
     bordercolor="#666666"
     borderopacity="1.0"
     inkscape:pageshadow="2"
     inkscape:pageopacity="0.0"
     inkscape:pagecheckerboard="0" /><g
     id="g8"
     inkscape:groupmode="layer"
     inkscape:label="main"
     transform="matrix(1.3333333,0,0,-1.3333333,0,167.70267)"><g
       id="g10"><path
         d="M 0,0 H 263.166 V 125.777 H 0 Z"
         style="fill:#ffffff;fill-opacity:1;fill-rule:nonzero;stroke:none"
         id="path12" /></g><g
       id="g14"
       transform="translate(74.166,61.095)"><g
         id="g16"><g
           id="g18" /><g
           id="g20"><g
             id="g22"><path
               d="M -1.79317,10.75975 C 5.89407,10.75975 12.9997,6.65736 16.8433,0 12.9997,-6.65736 5.89407,-10.75975 -1.79317,-10.75975 h -10.75976 c 1.60936,3.41429 2.43747,7.06585 2.43747,10.74831 0,3.68243 -0.82811,7.334 -2.43747,10.7483 z m -14.34646,-21.5195 0.18486,0.32672 m 0,0 0.17927,0.33035 m 0,0 0.1734,0.33294 m 0,0 0.16747,0.33625 m 0,0 0.16188,0.33889 m 0,0 0.15562,0.34181 m 0,0 0.14975,0.34446 m 0,0 0.14382,0.34707 m 0,0 0.13757,0.34938 m 0,0 0.13169,0.35167 m 0,0 0.12544,0.35395 m 0,0 0.11918,0.35628 m 0,0 0.11264,0.35826 m 0,0 0.10671,0.36022 m 0,0 0.10048,0.36184 m 0,0 0.09424,0.36382 m 0,0 0.08735,0.36514 m 0,0 0.08142,0.36647 m 0,0 0.07488,0.36809 m 0,0 0.06863,0.36942 m 0,0 0.06173,0.37037 m 0,0 0.05549,0.37137 m 0,0 0.04924,0.37238 m 0,0 0.04237,0.37335 m 0,0 0.0358,0.37367 m 0,0 0.02956,0.37433 m 0,0 0.02298,0.375 m 0,0 0.01642,0.3753 m 0,0 0.0099,0.37532 m 0,0 L -13.2566,0 m 0,0 -0.0033,0.37563 m 0,0 -0.0099,0.37532 m 0,0 -0.01642,0.3753 m 0,0 -0.02298,0.375 m 0,0 -0.02956,0.37433 m 0,0 -0.0358,0.37367 m 0,0 -0.04237,0.37335 m 0,0 -0.04924,0.37238 m 0,0 -0.05549,0.37137 m 0,0 -0.06173,0.37037 m 0,0 -0.06863,0.36942 m 0,0 -0.07488,0.36809 m 0,0 -0.08142,0.36647 m 0,0 -0.08735,0.36514 m 0,0 -0.09424,0.36382 m 0,0 -0.10048,0.36184 m 0,0 -0.10671,0.36022 m 0,0 -0.11264,0.35826 m 0,0 -0.11918,0.35628 m 0,0 -0.12544,0.35395 m 0,0 -0.13169,0.35167 m 0,0 -0.13757,0.34938 m 0,0 -0.14382,0.34707 m 0,0 -0.14975,0.34446 m 0,0 -0.15562,0.34181 m 0,0 -0.16188,0.33889 m 0,0 -0.16747,0.33625 m 0,0 -0.1734,0.33294 m 0,0 -0.17927,0.33035 m 0,0 -0.18486,0.32672"
               style="fill:none;stroke:#000000;stroke-width:0.3985;stroke-linecap:butt;stroke-linejoin:miter;stroke-miterlimit:10;stroke-dasharray:none;stroke-opacity:1"
               id="path24" /><g
               id="g26"
               transform="scale(1.5)"><g
                 id="g28" /></g></g><g
             id="g30"><path
               d="m 3.5865,-14.79237 c 5.94252,0 10.75977,-4.81725 10.75977,-10.75975 0,-5.94252 -4.81725,-10.75977 -10.75977,-10.75977 h -16.13943 v 21.51952 z"
               style="fill:none;stroke:#000000;stroke-width:0.3985;stroke-linecap:butt;stroke-linejoin:miter;stroke-miterlimit:10;stroke-dasharray:none;stroke-opacity:1"
               id="path32" /><g
               id="g34"
               transform="matrix(1.5,0,0,1.5,0,-25.552)"><g
                 id="g36" /><g
                 id="g38"
                 transform="translate(0,25.552)" /></g></g><path
             d="M 17.18842,0 H 52.30676"
             style="fill:none;stroke:#000000;stroke-width:0.3985;stroke-linecap:butt;stroke-linejoin:miter;stroke-miterlimit:10;stroke-dasharray:none;stroke-opacity:1"
             id="path40" /><g
             id="g42"><path
               d="m 68.74525,14.34634 c 5.94252,0 10.75977,-4.81724 10.75977,-10.75976 0,-5.94251 -4.81725,-10.75975 -10.75977,-10.75975 H 52.6058 v 21.51951 z"
               style="fill:none;stroke:#000000;stroke-width:0.3985;stroke-linecap:butt;stroke-linejoin:miter;stroke-miterlimit:10;stroke-dasharray:none;stroke-opacity:1"
               id="path44" /><g
               id="g46"
               transform="matrix(1.5,0,0,1.5,65.158,3.587)"><g
                 id="g48" /><g
                 id="g50"
                 transform="translate(-65.158,-3.587)" /></g></g><g
             id="g52"><path
               d="m 63.36557,39.89848 c 7.68726,0 14.79288,-4.10238 18.63649,-10.75976 C 78.15845,22.48135 71.05283,18.37895 63.36557,18.37895 H 52.6058 c 1.60936,3.41431 2.43747,7.06587 2.43747,10.74832 0,3.68245 -0.82811,7.33402 -2.43747,10.74831 z M 49.0191,18.37895 l 0.18486,0.32672 m 0,0 0.17928,0.33036 m 0,0 0.17339,0.33294 m 0,0 0.16746,0.33625 m 0,0 0.1619,0.33888 m 0,0 0.15562,0.34183 m 0,0 0.14975,0.34445 m 0,0 0.14381,0.34706 m 0,0 0.13758,0.34939 m 0,0 0.13168,0.35167 m 0,0 0.12544,0.35396 m 0,0 0.11919,0.35628 m 0,0 0.11263,0.35826 m 0,0 0.10671,0.36021 m 0,0 0.10048,0.36184 m 0,0 0.09424,0.36383 m 0,0 0.08736,0.36514 m 0,0 0.08142,0.36647 m 0,0 0.07487,0.36809 m 0,0 0.06864,0.3694 m 0,0 0.06172,0.37039 m 0,0 0.05548,0.37137 m 0,0 0.04926,0.37236 m 0,0 0.04237,0.37337 m 0,0 0.0358,0.37365 m 0,0 0.02956,0.37435 m 0,0 0.02297,0.375 m 0,0 0.01642,0.3753 m 0,0 0.0099,0.37532 m 0,0 0.0033,0.37563 m 0,0 -0.0033,0.37562 m 0,0 -0.0099,0.37532 m 0,0 -0.01642,0.37531 m 0,0 -0.02297,0.375 m 0,0 -0.02956,0.37434 m 0,0 -0.0358,0.37366 m 0,0 -0.04237,0.37337 m 0,0 -0.04926,0.37237 m 0,0 -0.05548,0.37137 m 0,0 -0.06172,0.37038 m 0,0 -0.06864,0.3694 m 0,0 -0.07487,0.36809 m 0,0 -0.08142,0.36648 m 0,0 -0.08736,0.36513 m 0,0 -0.09424,0.36383 m 0,0 -0.10048,0.36183 m 0,0 -0.10671,0.36022 m 0,0 -0.11263,0.35826 m 0,0 -0.11919,0.35627 m 0,0 -0.12544,0.35396 m 0,0 -0.13168,0.35167 m 0,0 -0.13758,0.3494 m 0,0 -0.14381,0.34706 m 0,0 -0.14975,0.34445 m 0,0 -0.15562,0.34183 m 0,0 -0.1619,0.33888 m 0,0 -0.16746,0.33624 m 0,0 -0.17339,0.33295 m 0,0 -0.17928,0.33035 m 0,0 -0.18486,0.32672"
               style="fill:none;stroke:#000000;stroke-width:0.3985;stroke-linecap:butt;stroke-linejoin:miter;stroke-miterlimit:10;stroke-dasharray:none;stroke-opacity:1"
               id="path54" /><g
               id="g56"
               transform="matrix(1.5,0,0,1.5,65.158,29.138)"><g
                 id="g58" /><g
                 id="g60"
                 transform="translate(-65.158,-29.138)" /></g></g><path
             d="m 79.80391,3.58658 h 35.11835"
             style="fill:none;stroke:#000000;stroke-width:0.3985;stroke-linecap:butt;stroke-linejoin:miter;stroke-miterlimit:10;stroke-dasharray:none;stroke-opacity:1"
             id="path62" /><g
             id="g64"><path
               d="m 123.40436,10.75975 c 7.68727,0 14.79288,-4.10239 18.6365,-10.75975 -3.84362,-6.65736 -10.94923,-10.75975 -18.6365,-10.75975 H 112.6446 c 1.88822,3.27051 2.88302,6.98329 2.88302,10.75975 0,3.77646 -0.9948,7.48924 -2.88302,10.75975 z"
               style="fill:none;stroke:#000000;stroke-width:0.3985;stroke-linecap:butt;stroke-linejoin:miter;stroke-miterlimit:10;stroke-dasharray:none;stroke-opacity:1"
               id="path66" /><g
               id="g68"
               transform="matrix(1.5,0,0,1.5,125.196,0)"><g
                 id="g70" /><g
                 id="g72"
                 transform="translate(-125.196)" /></g></g><path
             d="m 114.92226,-3.58658 h -7.02367 V -25.55212 H 14.64516"
             style="fill:none;stroke:#000000;stroke-width:0.3985;stroke-linecap:butt;stroke-linejoin:miter;stroke-miterlimit:10;stroke-dasharray:none;stroke-opacity:1"
             id="path74" /><path
             d="M -13.8618,3.58658 H -41.95648"
             style="fill:none;stroke:#000000;stroke-width:0.3985;stroke-linecap:butt;stroke-linejoin:miter;stroke-miterlimit:10;stroke-dasharray:none;stroke-opacity:1"
             id="path76" /><g
             id="g78" /><g
             id="g80"><g
               id="g82"
               transform="translate(-54.219,-0.797)"><g
                 id="g84"><g
                   id="g86"
                   transform="translate(-19.947,-60.298)"><text
                     transform="matrix(1,0,0,-1,19.947,60.298)"
                     style="font-variant:normal;font-weight:normal;font-size:14.3462px;font-family:CMTT12;-inkscape-font-specification:CMTT12;writing-mode:lr-tb;fill:#000000;fill-opacity:1;fill-rule:nonzero;stroke:none"
                     id="text90"><tspan
                       x="0"
                       y="0"
                       id="tspan88">A</tspan></text><g
                     id="g92"
                     transform="translate(19.947,60.298)" /></g></g><g
                 id="g94"
                 transform="translate(54.219,0.797)" /></g></g><path
             d="M -12.85197,-29.13872 H -40.94666"
             style="fill:none;stroke:#000000;stroke-width:0.3985;stroke-linecap:butt;stroke-linejoin:miter;stroke-miterlimit:10;stroke-dasharray:none;stroke-opacity:1"
             id="path96" /><g
             id="g98" /><g
             id="g100"><g
               id="g102"
               transform="translate(-53.21,-33.522)"><g
                 id="g104"><g
                   id="g106"
                   transform="translate(-20.956,-27.573)"><text
                     transform="matrix(1,0,0,-1,20.956,27.573)"
                     style="font-variant:normal;font-weight:normal;font-size:14.3462px;font-family:CMTT12;-inkscape-font-specification:CMTT12;writing-mode:lr-tb;fill:#000000;fill-opacity:1;fill-rule:nonzero;stroke:none"
                     id="text110"><tspan
                       x="0"
                       y="0"
                       id="tspan108">B</tspan></text><g
                     id="g112"
                     transform="translate(20.956,27.573)" /></g></g><g
                 id="g114"
                 transform="translate(53.21,33.522)" /></g></g><path
             d="m -13.8618,3.58658 h -7.02365 v -25.55213 h 8.03348"
             style="fill:none;stroke:#000000;stroke-width:0.3985;stroke-linecap:butt;stroke-linejoin:miter;stroke-miterlimit:10;stroke-dasharray:none;stroke-opacity:1"
             id="path116" /><g
             id="g118"><g
               id="g120"><path
                 d="m -18.89874,3.58658 c 0,1.09722 -0.88948,1.98672 -1.98671,1.98672 -1.09725,0 -1.98673,-0.8895 -1.98673,-1.98672 0,-1.09723 0.88948,-1.98671 1.98673,-1.98671 1.09723,0 1.98671,0.88948 1.98671,1.98671 z"
                 style="fill:#000000;fill-opacity:1;fill-rule:nonzero;stroke:none"
                 id="path122" /></g><g
               id="g124"
               transform="translate(-20.885,3.587)"><g
                 id="g126" /><g
                 id="g128"
                 transform="translate(20.885,-3.587)" /></g></g><path
             d="M -12.85197,-29.13872 H -26.89932 V -3.58658 H -13.8618"
             style="fill:none;stroke:#000000;stroke-width:0.3985;stroke-linecap:butt;stroke-linejoin:miter;stroke-miterlimit:10;stroke-dasharray:none;stroke-opacity:1"
             id="path130" /><g
             id="g132"><g
               id="g134"><path
                 d="m -24.9126,-29.13872 c 0,1.09723 -0.88948,1.98671 -1.98672,1.98671 -1.09723,0 -1.98671,-0.88948 -1.98671,-1.98671 0,-1.09723 0.88948,-1.98672 1.98671,-1.98672 1.09724,0 1.98672,0.88949 1.98672,1.98672 z"
                 style="fill:#000000;fill-opacity:1;fill-rule:nonzero;stroke:none"
                 id="path136" /></g><g
               id="g138"
               transform="translate(-26.899,-29.138)"><g
                 id="g140" /><g
                 id="g142"
                 transform="translate(26.899,29.138)" /></g></g><path
             d="M 51.29694,32.72531 H -41.95648"
             style="fill:none;stroke:#000000;stroke-width:0.3985;stroke-linecap:butt;stroke-linejoin:miter;stroke-miterlimit:10;stroke-dasharray:none;stroke-opacity:1"
             id="path144" /><g
             id="g146"><g
               id="g148"
               transform="translate(-68.984,28.341)"><g
                 id="g150"><g
                   id="g152"
                   transform="translate(-5.182,-89.436)"><text
                     transform="matrix(1,0,0,-1,5.182,89.436)"
                     style="font-variant:normal;font-weight:normal;font-size:14.3462px;font-family:CMTT12;-inkscape-font-specification:CMTT12;writing-mode:lr-tb;fill:#000000;fill-opacity:1;fill-rule:nonzero;stroke:none"
                     id="text156"><tspan
                       x="0 7.3825545 14.765109"
                       y="0"
                       sodipodi:role="line"
                       id="tspan154">Cin</tspan></text><g
                     id="g158"
                     transform="translate(5.182,89.436)" /></g></g><g
                 id="g160"
                 transform="translate(68.984,-28.341)" /></g></g><path
             d="M 51.29694,32.72531 H 44.27327 V 7.17317 h 8.03349"
             style="fill:none;stroke:#000000;stroke-width:0.3985;stroke-linecap:butt;stroke-linejoin:miter;stroke-miterlimit:10;stroke-dasharray:none;stroke-opacity:1"
             id="path162" /><g
             id="g164"><g
               id="g166"><path
                 d="m 46.26,32.72531 c 0,1.09723 -0.88949,1.98671 -1.98673,1.98671 -1.09723,0 -1.98671,-0.88948 -1.98671,-1.98671 0,-1.09724 0.88948,-1.98672 1.98671,-1.98672 1.09724,0 1.98673,0.88948 1.98673,1.98672 z"
                 style="fill:#000000;fill-opacity:1;fill-rule:nonzero;stroke:none"
                 id="path168" /></g><g
               id="g170"
               transform="translate(44.273,32.725)"><g
                 id="g172" /><g
                 id="g174"
                 transform="translate(-44.273,-32.725)" /></g></g><path
             d="M 52.30676,0 H 38.25941 v 25.55212 h 13.03753"
             style="fill:none;stroke:#000000;stroke-width:0.3985;stroke-linecap:butt;stroke-linejoin:miter;stroke-miterlimit:10;stroke-dasharray:none;stroke-opacity:1"
             id="path176" /><g
             id="g178"><g
               id="g180"><path
                 d="m 40.24614,0 c 0,1.09723 -0.88948,1.98671 -1.98673,1.98671 -1.09722,0 -1.98671,-0.88948 -1.98671,-1.98671 0,-1.09723 0.88949,-1.98671 1.98671,-1.98671 1.09725,0 1.98673,0.88948 1.98673,1.98671 z"
                 style="fill:#000000;fill-opacity:1;fill-rule:nonzero;stroke:none"
                 id="path182" /></g><g
               id="g184"
               transform="translate(38.259)"><g
                 id="g186" /><g
                 id="g188"
                 transform="translate(-38.259)" /></g></g><path
             d="m 142.38596,0 h 7.02366"
             style="fill:none;stroke:#000000;stroke-width:0.3985;stroke-linecap:butt;stroke-linejoin:miter;stroke-miterlimit:10;stroke-dasharray:none;stroke-opacity:1"
             id="path190" /><g
             id="g192" /><g
             id="g194"><g
               id="g196"
               transform="translate(154.289,-4.384)"><g
                 id="g198"><g
                   id="g200"
                   transform="translate(-228.455,-56.711)"><text
                     transform="matrix(1,0,0,-1,228.455,56.711)"
                     style="font-variant:normal;font-weight:normal;font-size:14.3462px;font-family:CMTT12;-inkscape-font-specification:CMTT12;writing-mode:lr-tb;fill:#000000;fill-opacity:1;fill-rule:nonzero;stroke:none"
                     id="text204"><tspan
                       x="0 7.3825545 14.765109 22.147663"
                       y="0"
                       sodipodi:role="line"
                       id="tspan202">Cout</tspan></text><g
                     id="g206"
                     transform="translate(228.455,56.711)" /></g></g><g
                 id="g208"
                 transform="translate(-154.289,4.384)" /></g></g><path
             d="m 82.34717,29.13872 h 67.06245"
             style="fill:none;stroke:#000000;stroke-width:0.3985;stroke-linecap:butt;stroke-linejoin:miter;stroke-miterlimit:10;stroke-dasharray:none;stroke-opacity:1"
             id="path210" /><g
             id="g212"><g
               id="g214"
               transform="translate(154.289,24.755)"><g
                 id="g216"><g
                   id="g218"
                   transform="translate(-228.455,-85.85)"><text
                     transform="matrix(1,0,0,-1,228.455,85.85)"
                     style="font-variant:normal;font-weight:normal;font-size:14.3462px;font-family:CMTT12;-inkscape-font-specification:CMTT12;writing-mode:lr-tb;fill:#000000;fill-opacity:1;fill-rule:nonzero;stroke:none"
                     id="text222"><tspan
                       x="0"
                       y="0"
                       id="tspan220">S</tspan></text><g
                     id="g224"
                     transform="translate(228.455,85.85)" /></g></g><g
                 id="g226"
                 transform="translate(-154.289,-24.755)" /></g></g><g
             id="g228"><g
               id="g230"><path
                 d="m 14.04735,15.31862 h -42.14203 c -3.87911,0 -7.02367,-3.14456 -7.02367,-7.02367 v -42.14203 c 0,-3.8791 3.14456,-7.02366 7.02367,-7.02366 h 42.14203 c 3.8791,0 7.02366,3.14456 7.02366,7.02366 V 8.29495 c 0,3.87911 -3.14456,7.02367 -7.02366,7.02367 z"
                 style="fill:none;stroke:#808080;stroke-width:0.3985;stroke-linecap:butt;stroke-linejoin:miter;stroke-miterlimit:10;stroke-dasharray:2.98883, 2.98883;stroke-dashoffset:0;stroke-opacity:1"
                 id="path232" /></g><g
               id="g234"
               transform="translate(-7.024,-12.776)"><g
                 id="g236" /><g
                 id="g238"
                 transform="translate(7.024,12.776)" /></g></g><g
             id="g240"><g
               id="g242" /><g
               id="g244"
               transform="translate(-36.205,-55.913)"><g
                 id="g246"><g
                   id="g248"
                   transform="translate(-37.961,-5.182)"><text
                     transform="matrix(1,0,0,-1,37.961,5.182)"
                     style="font-variant:normal;font-weight:normal;font-size:14.3462px;font-family:CMSS12;-inkscape-font-specification:CMSS12;writing-mode:lr-tb;fill:#808080;fill-opacity:1;fill-rule:nonzero;stroke:none"
                     id="text252"><tspan
                       x="0 7.2060962 13.930161 17.234091 26.203335 32.927399 40.133495 47.339592 53.583057"
                       y="0"
                       sodipodi:role="line"
                       id="tspan250">halfadder</tspan></text><g
                     id="g254"
                     transform="translate(37.961,5.182)" /></g></g><g
                 id="g256"
                 transform="translate(36.205,55.913)" /></g></g><g
             id="g258"><g
               id="g260"><path
                 d="M 79.2061,44.45732 H 37.06406 c -3.87911,0 -7.02367,-3.14455 -7.02367,-7.02365 V -4.70836 c 0,-3.8791 3.14456,-7.02367 7.02367,-7.02367 H 79.2061 c 3.8791,0 7.02367,3.14457 7.02367,7.02367 v 42.14203 c 0,3.8791 -3.14457,7.02365 -7.02367,7.02365 z"
                 style="fill:none;stroke:#808080;stroke-width:0.3985;stroke-linecap:butt;stroke-linejoin:miter;stroke-miterlimit:10;stroke-dasharray:2.98883, 2.98883;stroke-dashoffset:0;stroke-opacity:1"
                 id="path262" /></g><g
               id="g264"
               transform="translate(58.134,16.362)"><g
                 id="g266" /><g
                 id="g268"
                 transform="translate(-58.134,-16.362)" /></g></g><g
             id="g270"><g
               id="g272" /><g
               id="g274"
               transform="translate(28.952,49.537)"><g
                 id="g276"><g
                   id="g278"
                   transform="translate(-103.118,-110.632)"><text
                     transform="matrix(1,0,0,-1,103.118,110.632)"
                     style="font-variant:normal;font-weight:normal;font-size:14.3462px;font-family:CMSS12;-inkscape-font-specification:CMSS12;writing-mode:lr-tb;fill:#808080;fill-opacity:1;fill-rule:nonzero;stroke:none"
                     id="text282"><tspan
                       x="0 7.2060962 13.930161 17.234091 26.203335 32.941746 40.147842 47.353935 53.597404"
                       y="0"
                       sodipodi:role="line"
                       id="tspan280">halfadder</tspan></text><g
                     id="g284"
                     transform="translate(103.118,110.632)" /></g></g><g
                 id="g286"
                 transform="translate(-28.952,-49.537)" /></g></g></g></g></g></g></svg>
